<svg viewBox="0 0 1009 325.261" xmlns:xlink="http://www.w3.org/1999/xlink" width="1009" xmlns="http://www.w3.org/2000/svg" height="325"><defs><linearGradient id="lg1" x1="0%" y1="0%" x2="100%" y2="0%"><stop offset="0.20" stop-color="#ff770f"/><stop offset="0.99" stop-color="#4155c6"/><stop offset="1.00" stop-color="#3a4cb3"/></linearGradient></defs><path d="M286.2,96.9C286.2,115.4,283.8,127.4,278.9,132.8C274.0,138.3,261.8,141.1,242.3,141.4C243.7,141.4,244.4,140.4,244.4,138.6C244.4,139.0,250.4,144.2,262.4,154.0C274.4,163.7,285.4,172.0,295.3,178.7C312.0,189.8,320.3,202.1,320.3,215.8C320.3,224.3,316.7,233.1,309.5,242.2C302.4,251.3,294.3,255.8,285.5,255.8C280.2,255.8,274.6,254.4,268.6,251.5C262.5,248.6,253.7,242.5,242.2,233.3C230.6,224.0,221.9,216.6,216.0,211.1C210.0,205.7,206.0,201.7,203.9,199.4C201.9,197.0,200.8,193.7,200.8,189.4C200.8,185.1,198.5,179.0,193.9,171.1C189.3,163.1,182.5,154.1,173.5,144.0C164.5,133.9,157.2,127.3,151.4,124.1C145.7,120.9,139.8,119.3,133.7,119.3C124.3,119.3,115.2,123.4,106.2,131.6C97.2,139.8,92.7,148.2,92.7,156.9C92.7,160.2,93.4,163.6,94.7,167.1C96.0,170.6,96.7,173.6,96.7,176.2C96.7,181.9,92.9,192.6,85.3,208.2C77.7,223.8,69.8,234.9,61.7,241.3C53.5,247.8,45.1,251.1,36.6,251.1C28.1,251.1,19.9,247.8,11.9,241.2C4.0,234.7,.0,226.3,.0,216.2C.0,206.1,5.3,193.5,16.0,178.5C26.6,163.5,34.4,149.0,39.4,135.0C44.3,121.0,46.8,104.1,46.8,84.4L46.8,50.2C46.8,30.2,50.2,17.8,56.9,13.0C63.7,8.2,76.2,5.8,94.3,5.8L239.0,5.8C253.4,5.8,263.5,6.6,269.4,8.4C275.2,10.2,279.5,13.6,282.2,18.6C284.8,23.6,286.2,34.2,286.2,50.2L286.2,96.9zM215.2,80.0L215.2,70.2C215.2,68.0,214.5,66.8,212.9,66.8L124.4,66.8C122.4,66.8,121.4,68.0,121.4,70.2L121.4,80.0C121.4,83.1,122.4,84.7,124.4,84.7L212.9,84.7C214.5,84.7,215.2,83.1,215.2,80.0zM134.1,124.3C138.5,124.3,142.9,125.3,147.3,127.2C151.7,129.1,155.0,131.3,157.2,133.8L171.2,149.4C175.0,152.4,179.4,157.7,184.5,165.2C189.7,172.7,192.9,178.3,194.3,181.9C195.6,185.5,196.3,189.0,196.3,192.4C196.3,201.9,191.9,210.2,183.0,217.5C174.1,224.8,165.5,228.4,157.0,228.4C148.5,228.4,140.6,223.1,133.3,212.5C126.0,201.9,118.3,191.9,110.4,182.6C102.5,173.3,98.6,164.6,98.6,156.5C98.6,148.4,102.4,141.0,109.9,134.3C117.5,127.6,125.6,124.3,134.1,124.3zM249.8,280.8C249.8,287.3,247.6,296.1,243.4,307.4C239.1,318.6,231.1,324.2,219.3,324.2C213.6,324.2,204.3,322.5,191.3,319.1L81.2,289.8C75.7,287.5,71.6,284.4,68.7,280.3C65.9,276.3,64.5,270.8,64.5,264.0C64.5,257.1,67.3,248.4,72.8,237.8C78.4,227.2,87.4,221.8,100.0,221.8C106.2,221.8,121.2,224.6,145.0,230.2C168.8,235.8,189.6,241.6,207.3,247.5C225.0,253.5,236.5,258.8,241.8,263.3C247.1,267.8,249.8,273.6,249.8,280.8zM577.5,256.1C577.5,257.1,577.7,257.5,578.2,257.5L517.0,257.5C517.5,257.5,517.8,257.3,517.8,256.8L517.8,290.3C517.8,304.9,514.9,314.1,509.2,318.0C503.6,321.9,494.2,323.9,481.1,323.9C468.0,323.9,458.6,321.9,452.9,317.8C447.3,313.8,444.5,304.6,444.5,290.3L444.5,119.3C444.5,108.4,448.5,103.0,456.5,103.0C460.6,103.0,464.5,104.7,468.3,108.0C472.1,111.4,476.9,113.1,482.9,113.1C492.1,113.1,501.5,110.1,511.1,104.0C520.8,98.0,525.7,89.7,525.7,79.3C525.7,71.6,522.9,62.9,517.5,53.2C514.7,47.5,513.3,41.3,513.3,34.6C513.3,20.0,516.4,10.7,522.5,6.7C528.6,2.7,538.2,.7,551.3,.7C564.3,.7,574.4,2.2,581.4,5.3C588.4,8.5,592.0,18.3,592.0,34.9C592.0,39.1,591.6,42.3,591.0,44.6C590.3,46.9,588.8,49.8,586.4,53.1C577.2,63.5,572.6,72.9,572.6,81.3C572.6,89.7,577.0,97.4,585.8,104.5C594.7,111.6,602.5,115.2,609.2,115.2C616.0,115.2,623.2,112.0,630.8,105.8C634.8,102.8,638.4,101.3,641.7,101.3C648.4,101.3,651.8,106.9,651.8,118.3L651.8,278.1C651.8,292.1,648.4,303.0,641.7,310.8C634.9,318.6,625.4,322.6,612.9,322.6L577.2,322.6C554.0,322.6,542.4,311.9,542.4,290.7C542.4,281.8,544.5,275.0,548.7,270.2C552.9,265.5,559.0,263.6,567.1,264.6C569.4,264.8,571.5,264.8,573.4,264.8C575.3,264.8,576.5,264.7,576.9,264.4C577.3,264.1,577.5,263.1,577.5,261.5L577.5,256.1zM517.0,167.6L577.9,167.6C577.6,167.6,577.5,167.7,577.5,167.7L577.5,158.9C577.5,157.1,577.4,156.1,577.2,155.9C577.0,155.7,576.2,155.6,574.8,155.6L521.4,155.6C519.4,155.6,518.3,155.7,518.1,156.0C517.9,156.2,517.8,157.3,517.8,159.2L517.8,167.7C517.8,167.7,517.5,167.6,517.0,167.6zM578.2,206.7L517.0,206.7C517.5,206.7,517.8,206.4,517.8,205.6L517.8,218.2C517.8,218.4,517.5,218.5,517.0,218.5L577.5,218.5C577.5,218.5,577.5,218.6,577.5,218.9L577.5,205.0C577.5,206.1,577.7,206.7,578.2,206.7zM436.6,45.4C436.6,50.1,438.8,56.1,443.2,63.3C447.7,70.6,449.9,75.8,449.9,79.1C449.9,82.4,448.2,86.7,444.8,92.0C441.4,97.4,436.8,100.0,431.0,100.0C425.3,100.0,418.3,97.5,409.9,92.5C401.6,87.5,394.5,84.2,388.6,82.8C384.3,81.7,377.0,77.5,366.5,70.3C356.1,63.1,350.9,55.1,350.9,46.4C350.9,37.6,354.7,28.8,362.3,19.8C369.9,10.9,378.1,6.4,386.9,6.4C395.7,6.4,405.2,9.6,415.4,16.0C425.7,22.4,432.2,26.6,434.9,28.6C437.6,30.7,438.5,33.4,437.7,36.9C437.0,40.3,436.6,43.2,436.6,45.4zM477.3,14.9C482.8,14.9,487.5,16.5,491.4,19.7C495.4,22.9,499.4,27.9,503.5,34.7C507.7,41.5,511.7,49.3,515.6,58.1C519.5,66.9,521.4,73.9,521.4,79.0C521.4,88.4,517.1,95.7,508.3,100.7C499.6,105.7,491.8,108.2,485.0,108.2C473.9,108.2,465.4,101.3,459.4,87.5C456.0,79.4,450.7,68.7,443.6,55.5C441.7,52.2,440.8,48.7,440.8,45.1C440.8,37.1,445.0,30.0,453.4,24.0C461.8,17.9,469.8,14.9,477.3,14.9zM660.8,53.2C660.8,60.3,658.0,67.7,652.5,75.4C647.0,83.1,640.4,90.9,632.6,98.6C624.9,106.3,617.6,110.2,610.7,110.2C603.8,110.2,596.5,107.3,588.7,101.4C581.0,95.6,577.1,89.1,577.1,82.1C577.1,75.0,579.5,68.6,584.2,62.8L602.1,41.0C608.1,33.5,612.9,28.6,616.5,26.2C620.1,23.9,624.6,22.7,630.1,22.7C635.5,22.7,642.0,25.6,649.5,31.3C657.0,37.1,660.8,44.4,660.8,53.2zM440.2,167.0C440.2,176.3,437.3,181.0,431.5,181.0C429.8,181.0,427.9,180.5,426.0,179.5C421.1,177.3,415.8,176.2,410.1,176.2L404.1,176.9C400.3,176.9,394.5,174.5,386.9,169.7C379.3,164.9,371.7,159.8,364.1,154.5C356.6,149.2,351.5,144.6,348.8,140.7C346.2,136.9,344.9,132.3,344.9,127.1C344.9,118.9,348.7,110.2,356.4,101.0C364.1,91.7,371.9,87.0,379.8,87.0C387.7,87.0,395.4,89.2,403.1,93.4C410.8,97.6,418.3,102.3,425.6,107.3C432.9,112.2,437.2,115.6,438.4,117.3C439.6,119.0,440.2,121.5,440.2,125.0L440.2,167.0zM440.2,243.2C440.2,252.5,438.2,260.2,434.2,266.3L421.5,285.9C414.7,297.5,408.6,305.1,403.2,308.8C397.8,312.6,392.1,314.4,386.0,314.4C377.0,314.4,367.6,310.8,357.7,303.4C347.8,296.1,342.9,287.4,342.9,277.4C342.9,271.3,345.3,264.2,350.2,256.2L369.7,226.2C375.2,215.6,379.7,207.0,383.3,200.5C386.9,194.0,391.0,189.1,395.6,186.0C400.3,182.8,405.2,181.2,410.3,181.2C415.5,181.2,420.8,182.2,426.4,184.2C431.9,186.2,435.6,188.5,437.5,191.1C439.3,193.7,440.2,199.7,440.2,209.0L440.2,243.2zM975.2,26.4C984.8,26.4,991.8,29.1,996.3,34.6C1000.7,40.1,1003.0,49.0,1003.0,61.4C1003.0,73.7,999.8,82.6,993.4,87.9C987.0,93.3,981.9,96.0,978.2,96.0C976.7,96.0,975.1,95.6,973.5,94.7C967.5,91.3,960.1,89.5,951.1,89.5L825.8,89.5C804.0,89.5,793.1,101.5,793.1,125.4C793.1,136.3,795.8,145.3,801.1,152.4C802.5,154.3,803.1,156.6,803.1,159.2C803.1,161.8,800.5,165.7,795.2,170.8C786.9,178.1,782.8,189.5,782.8,204.9C782.8,220.2,787.4,231.3,796.7,238.0C799.4,240.1,800.8,245.3,800.8,253.7L800.8,286.6C800.8,305.1,797.5,316.2,790.9,319.8C784.2,323.5,775.1,325.3,763.3,325.3C751.6,325.3,742.3,323.5,735.6,319.8C728.9,316.2,725.5,305.1,725.5,286.6L725.5,217.5C725.5,215.6,725.4,214.6,725.3,214.4C725.2,214.3,724.4,214.1,722.9,213.8C709.9,211.3,700.5,205.8,694.6,197.1C688.7,188.4,685.7,179.7,685.7,170.8C685.7,162.0,691.2,153.0,702.1,143.9C718.1,130.1,730.3,118.4,738.8,108.7C747.3,99.0,751.6,93.5,751.6,92.2C751.6,93.6,751.5,94.3,751.3,94.3L720.5,94.3C711.0,94.3,703.9,91.5,699.3,86.0C694.7,80.4,692.4,71.9,692.4,60.3C692.4,48.8,694.7,40.2,699.3,34.7C703.8,29.2,710.9,26.4,720.5,26.4L782.4,26.4C783.5,26.4,784.1,26.4,784.3,26.2C784.4,26.1,784.6,26.1,785.0,26.1C791.7,8.7,804.7,.0,824.1,.0C832.9,.0,841.1,1.2,848.6,3.5C856.1,5.8,861.3,8.6,863.9,12.0C866.6,15.4,868.0,19.8,868.0,25.1C868.0,26.0,867.8,26.4,867.6,26.4L975.2,26.4zM951.1,94.5C961.6,94.5,970.1,97.3,976.7,103.0C983.3,108.7,986.6,115.3,986.6,122.7C986.6,130.0,985.6,136.1,983.7,140.8C981.7,145.5,977.5,152.4,970.9,161.6C964.3,170.8,958.2,178.3,952.5,184.2C946.8,190.1,941.8,194.1,937.3,196.1C932.8,198.2,927.4,199.3,921.1,199.3C914.7,199.3,907.6,196.5,899.6,191.0C891.6,185.5,887.6,178.9,887.6,171.1C887.6,166.7,888.7,162.7,891.1,159.4C893.4,156.0,894.6,154.0,894.6,153.5C894.6,153.0,893.4,152.3,890.9,151.6C888.5,150.9,885.1,150.5,880.6,150.5C876.1,150.5,872.5,151.3,869.8,152.8C867.1,154.3,864.6,155.3,862.4,155.8C860.1,156.3,856.3,156.6,850.9,156.6L825.8,156.6C807.0,156.6,797.7,146.2,797.7,125.5C797.7,104.8,807.0,94.5,825.8,94.5L951.1,94.5zM861.2,170.0C861.9,170.0,863.2,168.4,865.1,165.3C866.9,162.1,870.4,160.5,875.3,160.5C880.2,160.5,882.7,164.2,882.7,171.4C882.7,180.8,887.4,188.6,896.7,194.8C906.1,201.1,915.1,204.2,923.7,204.2C929.9,204.2,936.2,202.3,942.4,198.4C948.6,194.5,956.1,187.3,964.9,176.9C966.6,174.9,968.7,173.5,971.3,172.8C973.8,172.1,978.6,171.7,985.7,171.7C992.8,171.7,998.4,174.5,1002.5,180.1C1006.6,185.7,1008.7,193.5,1008.7,203.6C1008.7,225.8,1000.5,236.9,984.2,236.9L939.1,236.9C937.7,236.9,936.9,236.9,936.9,236.9C936.8,236.9,936.8,237.4,936.8,238.5L936.8,287.3C936.8,302.1,932.4,312.1,923.5,317.3C914.7,322.4,901.4,324.9,883.7,324.9C866.0,324.9,854.3,323.9,848.6,321.7C842.9,319.6,838.7,315.9,835.9,310.5C833.2,305.1,831.8,296.8,831.8,285.8C831.8,274.7,834.5,266.3,839.9,260.6C845.3,254.8,853.6,252.0,864.9,252.0C865.8,252.0,866.2,251.4,866.2,250.3L866.2,238.2C866.2,237.2,866.2,236.8,866.2,236.8C866.3,236.8,865.8,236.9,864.9,236.9L812.1,236.9C804.0,236.9,797.8,233.8,793.6,227.8C789.4,221.7,787.3,213.6,787.3,203.4C787.3,193.2,789.4,185.1,793.6,179.1C797.8,173.0,803.9,170.0,812.1,170.0L861.2,170.0z" id="shape1" fill-rule="nonzero" fill="url(#lg1)"/></svg>