<svg viewBox="0 0 1207 311.554" xmlns="http://www.w3.org/2000/svg" height="312" width="1207" xmlns:xlink="http://www.w3.org/1999/xlink"><defs><linearGradient id="lg1" y2="0%" y1="0%" x2="100%" x1="0%"><stop offset="0.23" stop-color="#ff770f"/><stop offset="0.64" stop-color="#7030a0"/></linearGradient></defs><path id="shape1" d="M.0,.0L145.6,.0C155.0,.0,165.3,.8,176.4,2.5C187.5,4.2,197.6,8.0,206.5,13.7C215.5,19.5,222.5,26.7,227.4,35.5C232.4,44.3,234.9,54.3,234.9,65.3C234.9,83.3,228.5,97.8,215.7,108.9C202.9,120.0,187.7,127.3,170.2,130.6L218.8,187.2L220.8,189.7C224.0,193.5,226.9,196.4,229.5,198.3C232.1,200.1,234.7,201.4,237.3,202.2C239.9,203.0,243.5,203.4,248.1,203.4L258.2,203.4L258.2,236.1L182.6,236.1L106.8,134.4L87.2,134.4L87.2,181.4C87.2,189.5,87.6,194.7,88.5,196.9C89.4,199.1,90.8,200.7,92.8,201.8C94.8,202.9,98.8,203.4,104.8,203.4L115.6,203.4L115.6,236.1L.0,236.1L.0,203.4L10.6,203.4C16.1,203.4,20.1,202.8,22.4,201.6C24.7,200.5,26.4,198.7,27.6,196.3C28.1,195.0,28.4,190.7,28.4,183.6L28.4,50.8C28.4,45.6,28.0,41.9,27.2,39.7C26.3,37.5,24.9,36.0,23.0,35.4C20.3,34.1,17.1,33.5,13.6,33.5L8.9,33.7L.0,33.7L.0,.0zM87.2,38.8L87.2,99.8L122.2,99.8C135.9,99.8,146.2,98.6,153.1,96.0C159.9,93.5,165.0,89.9,168.5,85.1C171.9,80.4,173.6,74.6,173.6,67.9C173.6,61.7,172.0,56.3,168.8,51.9C165.6,47.4,161.0,44.1,155.1,42.0C149.2,39.8,139.5,38.8,126.1,38.8L87.2,38.8zM424.4,173.5L447.6,196.8C434.3,212.0,420.7,223.1,406.9,229.9C393.1,236.7,378.2,240.1,362.2,240.1C336.4,240.1,314.8,231.4,297.2,214.0C279.6,196.6,270.8,175.5,270.8,150.8C270.8,134.5,274.7,119.7,282.6,106.2C290.5,92.7,301.5,82.2,315.4,74.5C329.4,66.9,345.3,63.1,363.0,63.1C374.3,63.1,384.5,64.8,393.8,68.0C403.1,71.3,411.1,76.0,418.1,82.1C425.0,88.2,430.6,95.5,434.8,104.2C439.1,112.8,442.0,121.7,443.6,131.0C444.2,135.6,444.6,142.9,444.6,153.0L330.7,153.0C330.9,167.3,335.1,178.9,343.3,187.8C351.5,196.6,361.5,201.0,373.3,201.0C380.9,201.0,389.1,198.8,398.0,194.2C406.9,189.6,415.7,182.7,424.4,173.5zM390.6,124.6C389.8,117.8,388.2,112.5,385.7,108.6C383.3,104.7,380.0,101.6,375.9,99.3C371.8,96.9,367.4,95.8,362.9,95.8C358.2,95.8,353.6,97.0,349.2,99.3C344.8,101.7,341.2,104.9,338.6,109.0C335.9,113.0,334.2,118.2,333.4,124.6L390.6,124.6zM546.4,63.1L546.4,81.9C559.3,74.0,569.1,68.9,575.9,66.6C582.7,64.3,590.1,63.1,597.8,63.1C617.6,63.1,633.7,70.4,646.1,85.0C660.3,101.7,667.4,123.0,667.4,148.9C667.4,173.7,661.2,194.5,648.8,211.2C634.6,230.5,615.5,240.1,591.6,240.1C583.9,240.1,577.2,239.3,571.4,237.5C565.7,235.8,559.4,232.6,552.7,228.0L552.7,262.0C552.7,268.7,553.0,272.8,553.7,274.2C554.5,275.8,555.7,277.1,557.5,277.8C559.2,278.5,563.6,278.9,570.6,278.9L578.5,278.9L578.5,311.6L473.6,311.6L473.6,278.9L479.3,278.9C487.1,278.9,491.7,278.6,493.4,278.0C495.0,277.3,496.3,276.0,497.2,274.1C498.2,272.1,498.7,268.1,498.7,262.0L498.7,110.3L473.6,110.3L473.6,77.5C485.7,76.0,496.1,74.2,504.6,72.1C513.1,69.9,521.8,67.0,530.6,63.1L546.4,63.1zM552.7,115.9L552.7,171.1C552.7,179.8,553.5,186.0,555.1,189.6C556.7,193.3,559.6,196.3,563.6,198.6C567.6,200.9,572.2,202.1,577.4,202.1C586.5,202.1,594.1,197.8,600.1,189.4C606.2,180.9,609.2,168.0,609.2,150.8C609.2,134.8,606.6,122.9,601.3,115.2C596.1,107.4,589.6,103.6,581.9,103.6C573.1,103.6,563.4,107.7,552.7,115.9zM787.8,63.1C807.1,63.1,823.9,66.9,838.2,74.5C852.5,82.0,863.6,92.3,871.3,105.3C879.0,118.4,882.9,133.6,882.9,151.1C882.9,177.5,874.3,199.0,857.2,215.4C840.0,231.9,817.1,240.1,788.4,240.1C759.2,240.1,736.0,231.8,718.7,215.3C702.0,199.5,693.7,178.1,693.7,151.1C693.7,133.4,697.5,118.2,705.1,105.4C712.7,92.7,723.7,82.4,738.2,74.7C752.6,67.0,769.2,63.1,787.8,63.1zM788.4,100.2C782.0,100.2,776.0,102.1,770.3,105.9C764.7,109.8,760.3,115.4,757.2,122.9C754.1,130.3,752.6,139.8,752.6,151.3C752.6,163.1,754.1,173.0,757.1,180.7C760.2,188.5,764.4,194.3,769.7,198.0C775.1,201.7,781.0,203.6,787.4,203.6C797.4,203.6,805.9,199.4,813.0,191.0C820.1,182.6,823.6,169.5,823.6,151.8C823.6,134.7,820.3,121.8,813.7,113.1C807.1,104.5,798.7,100.2,788.4,100.2zM985.3,63.1L985.3,87.7C994.3,78.2,1002.1,71.7,1008.8,68.3C1015.4,64.8,1021.7,63.1,1027.8,63.1C1033.4,63.1,1038.3,64.4,1042.7,66.9C1047.0,69.5,1050.5,73.1,1053.0,77.8C1055.6,82.6,1056.8,87.7,1056.8,93.1C1056.8,100.2,1054.5,106.6,1049.8,112.4C1045.1,118.1,1038.5,121.0,1030.0,121.0C1027.8,121.0,1025.8,120.8,1024.0,120.5C1022.3,120.2,1018.6,119.0,1012.9,117.1C1010.0,116.2,1007.5,115.8,1005.6,115.8C1002.7,115.8,997.8,117.6,991.0,121.3L991.0,187.5C991.0,193.1,991.4,196.8,992.3,198.5C993.1,200.2,994.5,201.4,996.4,202.2C998.3,203.0,1002.5,203.4,1009.0,203.4L1016.4,203.4L1016.4,236.1L912.0,236.1L912.0,203.4L920.7,203.4C926.9,203.4,930.8,203.1,932.3,202.4C933.9,201.7,935.0,200.5,935.8,198.8C936.6,197.2,937.0,193.4,937.0,187.5L937.0,109.8L912.0,109.8L912.0,77.3C930.4,76.2,949.5,71.5,969.4,63.1L985.3,63.1zM1145.3,9.1L1145.3,67.2L1199.8,67.2L1199.8,103.2L1145.3,103.2L1145.3,162.1C1145.3,175.4,1146.0,184.0,1147.4,187.8C1148.8,191.5,1151.4,194.6,1155.3,196.8C1160.4,199.9,1166.2,201.4,1172.7,201.4C1184.3,201.4,1195.9,197.6,1207.4,190.0L1207.4,226.3C1197.6,230.9,1188.7,234.1,1180.8,236.0C1172.8,237.9,1164.2,238.8,1154.9,238.8C1144.5,238.8,1135.2,237.5,1127.1,234.8C1119.0,232.2,1112.2,228.4,1106.5,223.5C1100.8,218.6,1096.8,213.3,1094.6,207.8C1092.4,202.3,1091.3,194.3,1091.3,183.8L1091.3,103.2L1065.9,103.2L1065.9,70.7C1075.0,67.8,1082.7,63.6,1089.1,58.1C1095.5,52.7,1100.7,46.1,1104.6,38.4C1108.5,30.7,1111.2,21.0,1112.6,9.1L1145.3,9.1z" fill="url(#lg1)" fill-rule="nonzero"/></svg>