<svg height="248" width="860" xmlns:xlink="http://www.w3.org/1999/xlink" viewBox="0 0 860 248" xmlns="http://www.w3.org/2000/svg"><defs/><g transform="translate(1.000000,1.000000)" id="group1"><g id="group2"><g id="shape3"><path fill="#4ed7c5" stroke="#4ed7c5" stroke-width="1" d="M166.5,246.0C176.4,246.0,184.5,237.9,184.5,228.0L184.5,18.0C184.5,8.1,176.4,.0,166.5,.0L18.0,.0C8.1,.0,.0,8.1,.0,18.0L.0,228.0C.0,237.9,8.1,246.0,18.0,246.0L166.5,246.0z" fill-rule="nonzero"/><text style="fill:#ff770f;font-family:微软雅黑;font-size:9.00pt;font-weight:bold" xml:space="preserve"><tspan y="175.9" style="fill:#ffffff" x="26.3">使用系统之前看一遍系统</tspan><tspan y="192.9" style="fill:#ffffff" x="26.3">配置，勾选符合自己需求</tspan><tspan y="209.9" style="fill:#ffffff" x="26.3">项目，去掉不符合自己需</tspan><tspan y="226.9" style="fill:#ffffff" x="68.3">求的项目</tspan></text></g><g transform="matrix(0.707107,-0.707107,0.707107,0.707107,40.336053,60.189312)" id="shape4"><path fill="#ffffff" d="M36.7,.0C16.5,.0,.1,16.4,.0,36.6L.0,73.2C.0,73.2,35.4,73.4,36.7,73.4C57.0,73.4,73.4,57.0,73.4,36.7C73.4,16.5,57.0,.0,36.7,.0z" fill-rule="nonzero"/><text style="fill:#4ed7c5;font-family:微软雅黑;font-size:20.00pt;font-weight:bold" xml:space="preserve" transform="matrix(0.71,0.71,-0.71,0.71,36.7,-15.2)"><tspan y="47.7" x="19.7">01</tspan></text></g><g transform="translate(14.111483,128.820237)" id="shape5"><text style="fill:#ffffff;font-family:Arial;font-size:12.00pt;font-weight:bold" xml:space="preserve"><tspan y="23.0" x="44.1">系统配置</tspan></text></g></g><g transform="translate(224.500000,0.000000)" id="group6"><g id="shape7"><path fill="#467dfe" stroke="#467dfe" stroke-width="1" d="M166.5,246.0C176.4,246.0,184.5,237.9,184.5,228.0L184.5,18.0C184.5,8.1,176.4,.0,166.5,.0L18.0,.0C8.1,.0,.0,8.1,.0,18.0L.0,228.0C.0,237.9,8.1,246.0,18.0,246.0L166.5,246.0z" fill-rule="nonzero"/><text style="fill:#ffffff;font-family:微软雅黑;font-size:9.00pt;font-weight:bold" xml:space="preserve"><tspan y="184.4" x="26.3">将需要用的的信息包含商</tspan><tspan y="201.4" x="26.3">品信息、客户、供应商和</tspan><tspan y="218.4" x="32.3">现金银行账户录入系统</tspan></text></g><g transform="matrix(0.707107,-0.707107,0.707107,0.707107,40.336053,60.189312)" id="shape8"><path fill="#ffffff" d="M36.7,.0C16.5,.0,.1,16.4,.0,36.6L.0,73.2C.0,73.2,35.4,73.4,36.7,73.4C57.0,73.4,73.4,57.0,73.4,36.7C73.4,16.5,57.0,.0,36.7,.0z" fill-rule="nonzero"/><text style="fill:#467dfe;font-family:微软雅黑;font-size:20.00pt;font-weight:bold" xml:space="preserve" transform="matrix(0.71,0.71,-0.71,0.71,36.7,-15.2)"><tspan y="47.7" x="19.7">02</tspan></text></g><g transform="translate(14.111483,128.820237)" id="shape9"><text style="fill:#ffffff;font-family:Arial;font-size:12.00pt;font-weight:bold" xml:space="preserve"><tspan y="23.0" x="44.1">基础资料</tspan></text></g></g><g transform="translate(449.000000,0.000000)" id="group10"><g id="shape11"><path fill="#4155c6" stroke="#4155c6" stroke-width="1" d="M166.5,246.0C176.4,246.0,184.5,237.9,184.5,228.0L184.5,18.0C184.5,8.1,176.4,.0,166.5,.0L18.0,.0C8.1,.0,.0,8.1,.0,18.0L.0,228.0C.0,237.9,8.1,246.0,18.0,246.0L166.5,246.0z" fill-rule="nonzero"/><text style="fill:#ffffff;font-family:微软雅黑;font-size:9.00pt;font-weight:bold" xml:space="preserve"><tspan y="184.4" x="26.3">要使账实相符，需要盘点</tspan><tspan y="201.4" x="26.3">和统计商品库存余额、往</tspan><tspan y="218.4" x="32.3">来账余额等数据并导入</tspan></text></g><g transform="matrix(0.707107,-0.707107,0.707107,0.707107,40.336053,60.189312)" id="shape12"><path fill="#ffffff" d="M36.7,.0C16.5,.0,.1,16.4,.0,36.6L.0,73.2C.0,73.2,35.4,73.4,36.7,73.4C57.0,73.4,73.4,57.0,73.4,36.7C73.4,16.5,57.0,.0,36.7,.0z" fill-rule="nonzero"/><text style="fill:#4155c6;font-family:微软雅黑;font-size:20.00pt;font-weight:bold" xml:space="preserve" transform="matrix(0.71,0.71,-0.71,0.71,36.7,-15.2)"><tspan y="47.7" x="19.7">03</tspan></text></g><g transform="translate(14.111483,128.820237)" id="shape13"><text style="fill:#ffffff;font-family:Arial;font-size:12.00pt;font-weight:bold" xml:space="preserve"><tspan y="23.0" x="44.1">期初建账</tspan></text></g></g><g transform="translate(673.500000,0.000000)" id="group14"><g id="shape15"><path fill="#ff7e79" stroke="#ff7e79" stroke-width="1" d="M166.5,246.0C176.4,246.0,184.5,237.9,184.5,228.0L184.5,18.0C184.5,8.1,176.4,.0,166.5,.0L18.0,.0C8.1,.0,.0,8.1,.0,18.0L.0,228.0C.0,237.9,8.1,246.0,18.0,246.0L166.5,246.0z" fill-rule="nonzero"/><text style="fill:#ffffff;font-family:微软雅黑;font-size:9.00pt;font-weight:bold" xml:space="preserve"><tspan y="192.9" x="26.3">以报表结果为导向使用系</tspan><tspan y="209.9" x="56.3">统的相关单据</tspan></text></g><g transform="matrix(0.707107,-0.707107,0.707107,0.707107,40.336053,60.189312)" id="shape16"><path fill="#ffffff" d="M36.7,.0C16.5,.0,.1,16.4,.0,36.6L.0,73.2C.0,73.2,35.4,73.4,36.7,73.4C57.0,73.4,73.4,57.0,73.4,36.7C73.4,16.5,57.0,.0,36.7,.0z" fill-rule="nonzero"/><text style="fill:#ff7e79;font-family:微软雅黑;font-size:20.00pt;font-weight:bold" xml:space="preserve" transform="matrix(0.71,0.71,-0.71,0.71,36.7,-15.2)"><tspan y="47.7" x="19.7">04</tspan></text></g><g transform="translate(14.111483,128.820237)" id="shape17"><text style="fill:#ffffff;font-family:Arial;font-size:12.00pt;font-weight:bold" xml:space="preserve"><tspan y="23.0" x="44.1">处理业务</tspan></text></g></g></g></svg>