<svg viewBox="0 0 961 252.492" xmlns="http://www.w3.org/2000/svg" height="252" width="961" xmlns:xlink="http://www.w3.org/1999/xlink"><defs><linearGradient id="lg1" y2="0%" y1="0%" x2="100%" x1="0%"><stop offset="0.23" stop-color="#ff770f"/><stop offset="0.64" stop-color="#7030a0"/></linearGradient></defs><path id="shape1" d="M29.1,4.4L51.4,4.4L53.8,12.4L186.8,12.4L189.7,4.4L212.2,4.4L241.5,87.2L210.0,98.2C203.0,84.4,198.0,75.4,195.0,71.2C189.0,63.0,182.1,56.5,174.3,51.8C168.4,48.2,162.6,46.4,156.9,46.4C154.2,46.4,152.3,47.0,151.3,48.3C150.3,49.6,149.8,52.6,149.8,57.2L149.8,192.9C149.8,200.9,150.1,206.0,150.6,208.0C151.2,210.0,152.2,211.6,153.5,212.8C154.9,214.0,156.7,214.8,159.1,215.2C161.5,215.6,167.9,215.8,178.2,215.8L178.2,248.4L63.0,248.4L63.0,215.8L69.9,215.8C77.7,215.8,82.6,215.3,84.7,214.3C86.9,213.4,88.5,211.7,89.7,209.3C90.8,206.8,91.4,201.8,91.4,194.1L91.4,55.3C91.4,51.4,90.9,48.9,90.0,47.9C89.1,46.9,87.2,46.4,84.3,46.4C78.4,46.4,71.9,48.6,64.6,53.0C57.4,57.4,51.0,63.6,45.4,71.6C43.1,74.7,38.3,83.6,31.0,98.2L.0,87.2L29.1,4.4zM356.6,146.0L356.6,133.5C356.6,126.1,356.0,120.9,354.8,118.1C353.5,115.3,351.3,113.0,348.0,111.1C344.7,109.2,340.7,108.3,335.8,108.3C332.1,108.3,328.7,108.9,325.7,110.2C322.6,111.4,320.2,113.0,318.4,114.9C316.6,116.8,314.5,120.5,312.1,126.1C309.1,133.1,305.4,138.1,301.2,141.1C297.0,144.2,292.0,145.7,286.2,145.7C279.0,145.7,273.1,143.5,268.5,138.9C263.8,134.4,261.5,128.8,261.5,122.2C261.5,114.6,263.9,107.9,268.6,102.0C274.9,94.3,284.4,87.9,296.9,82.9C309.4,78.0,323.5,75.5,339.2,75.5C354.9,75.5,368.2,78.0,379.2,83.1C390.2,88.2,397.9,94.2,402.2,101.3C406.6,108.3,408.7,119.1,408.7,133.5L408.7,194.1C408.7,201.6,409.1,206.3,409.9,208.4C410.7,210.5,412.4,212.3,415.0,213.9C417.6,215.5,420.5,216.3,423.6,216.3C426.8,216.3,431.0,215.4,436.3,213.6L436.3,246.6C426.7,249.6,417.5,251.1,408.7,251.1C398.4,251.1,389.5,249.4,382.2,246.1C374.8,242.7,368.7,237.6,363.7,230.8C352.5,238.2,342.2,243.4,333.0,246.5C323.8,249.6,314.9,251.1,306.4,251.1C290.2,251.1,277.2,246.6,267.3,237.5C257.3,228.4,252.4,217.2,252.4,203.9C252.4,196.4,254.1,189.4,257.5,183.1C261.0,176.8,266.1,171.3,272.9,166.5C279.8,161.8,290.3,157.6,304.6,153.9C318.9,150.2,336.2,147.6,356.6,146.0zM356.6,174.1C341.8,176.3,331.4,178.5,325.3,180.7C319.2,182.9,314.9,185.6,312.3,188.9C309.7,192.3,308.4,195.7,308.4,199.2C308.4,203.7,310.1,207.5,313.5,210.5C316.9,213.6,321.4,215.1,327.2,215.1C330.9,215.1,335.2,214.1,340.1,212.2C345.0,210.3,350.5,207.5,356.6,203.8L356.6,174.1zM522.2,.0L522.2,91.2C531.6,85.3,539.9,81.3,547.2,78.9C554.5,76.6,561.8,75.5,569.1,75.5C588.3,75.5,604.2,82.5,616.7,96.5C631.2,112.7,638.5,134.4,638.5,161.4C638.5,188.9,631.2,210.9,616.6,227.5C601.9,244.2,584.2,252.5,563.5,252.5C555.0,252.5,546.9,251.1,539.1,248.3C531.3,245.4,523.1,240.8,514.7,234.2L505.5,248.4L468.3,248.4L468.3,47.0L443.6,47.0L443.6,14.4C465.8,12.8,486.5,8.0,505.6,.0L522.2,.0zM522.2,127.9L522.2,179.4C522.2,189.8,523.1,196.9,524.7,200.8C526.3,204.7,529.2,207.9,533.3,210.5C537.4,213.1,542.3,214.4,547.8,214.4C557.2,214.4,564.6,210.6,570.1,202.9C577.1,193.3,580.6,180.1,580.6,163.1C580.6,147.2,577.6,134.9,571.7,126.2C566.8,119.3,560.4,115.8,552.5,115.8C548.1,115.8,543.4,116.8,538.4,118.8C533.4,120.8,528.0,123.9,522.2,127.9zM741.6,.0L741.6,198.0C741.6,204.7,741.9,208.6,742.5,209.8C743.3,212.1,745.0,213.7,747.7,214.8C749.4,215.4,754.0,215.8,761.4,215.8L767.3,215.8L767.3,248.4L662.6,248.4L662.6,215.8L669.0,215.8C675.8,215.8,680.1,215.3,682.1,214.5C684.0,213.7,685.4,212.3,686.3,210.4C687.2,208.6,687.6,204.4,687.6,198.0L687.6,47.0L662.6,47.0L662.6,14.4C682.8,13.0,703.7,8.2,725.2,.0L741.6,.0zM938.1,185.8L961.3,209.2C948.0,224.4,934.4,235.4,920.6,242.3C906.8,249.1,891.8,252.5,875.8,252.5C850.1,252.5,828.4,243.8,810.8,226.3C793.2,208.9,784.4,187.8,784.4,163.1C784.4,146.9,788.4,132.0,796.3,118.5C804.2,105.1,815.1,94.5,829.1,86.9C843.1,79.3,859.0,75.5,876.7,75.5C888.0,75.5,898.2,77.1,907.5,80.4C916.7,83.7,924.8,88.3,931.8,94.4C938.7,100.5,944.3,107.9,948.5,116.5C952.7,125.1,955.6,134.1,957.2,143.3C957.9,148.0,958.2,155.3,958.2,165.3L844.3,165.3C844.6,179.7,848.8,191.3,857.0,200.1C865.1,209.0,875.1,213.4,887.0,213.4C894.6,213.4,902.8,211.1,911.7,206.5C920.6,202.0,929.4,195.1,938.1,185.8zM904.3,136.9C903.5,130.1,901.9,124.8,899.4,120.9C897.0,117.0,893.7,113.9,889.6,111.6C885.4,109.3,881.1,108.1,876.6,108.1C871.8,108.1,867.3,109.3,862.8,111.7C858.4,114.1,854.9,117.3,852.2,121.3C849.6,125.4,847.8,130.6,847.1,136.9L904.3,136.9z" fill="url(#lg1)" fill-rule="nonzero"/></svg>