<svg viewBox="0 0 1140 252.492" xmlns="http://www.w3.org/2000/svg" height="252" width="1140" xmlns:xlink="http://www.w3.org/1999/xlink"><defs><linearGradient id="lg1" y2="0%" y1="0%" x2="100%" x1="0%"><stop offset="0.23" stop-color="#ff770f"/><stop offset="0.64" stop-color="#7030a0"/></linearGradient></defs><path id="shape1" d="M.0,12.4L123.8,12.4C151.9,12.4,174.3,16.8,190.9,25.7C207.5,34.6,220.7,47.8,230.6,65.3C240.4,82.8,245.4,103.8,245.4,128.3C245.4,145.3,242.9,160.5,237.8,174.0C232.8,187.4,225.3,199.5,215.4,210.3C205.5,221.0,194.8,229.1,183.4,234.6C174.8,238.6,162.7,241.9,146.9,244.5C131.2,247.1,118.5,248.4,109.1,248.4L.0,248.4L.0,215.8L8.2,215.8C15.1,215.8,19.6,215.2,21.8,214.1C23.9,212.9,25.7,211.0,27.1,208.3C28.0,206.2,28.4,201.5,28.4,194.3L28.4,65.3C28.4,58.1,27.9,53.4,27.0,51.4C26.0,49.3,24.4,47.7,22.2,46.6C20.0,45.6,15.3,45.0,8.2,45.0L.0,45.0L.0,12.4zM86.5,50.1L86.5,197.1C86.5,202.1,86.8,205.2,87.3,206.3C88.2,208.0,89.6,209.1,91.3,209.8C93.0,210.4,97.3,210.7,103.9,210.7C122.4,210.7,136.9,207.8,147.3,202.1C157.8,196.4,166.2,187.3,172.6,174.7C179.0,162.0,182.3,147.0,182.3,129.6C182.3,112.4,179.2,97.5,173.2,84.8C167.2,72.1,159.7,63.1,150.8,57.9C141.9,52.7,129.1,50.1,112.5,50.1L86.5,50.1zM424.1,185.8L447.3,209.2C434.0,224.4,420.4,235.4,406.6,242.3C392.8,249.1,377.8,252.5,361.8,252.5C336.1,252.5,314.4,243.8,296.8,226.3C279.2,208.9,270.4,187.8,270.4,163.1C270.4,146.9,274.4,132.0,282.3,118.5C290.2,105.1,301.1,94.5,315.1,86.9C329.1,79.3,344.9,75.5,362.7,75.5C373.9,75.5,384.2,77.1,393.5,80.4C402.7,83.7,410.8,88.3,417.7,94.4C424.7,100.5,430.3,107.9,434.5,116.5C438.7,125.1,441.6,134.1,443.2,143.3C443.9,148.0,444.2,155.3,444.2,165.3L330.3,165.3C330.6,179.7,334.8,191.3,342.9,200.1C351.1,209.0,361.1,213.4,373.0,213.4C380.5,213.4,388.8,211.1,397.7,206.5C406.6,202.0,415.4,195.1,424.1,185.8zM390.2,136.9C389.5,130.1,387.8,124.8,385.4,120.9C383.0,117.0,379.7,113.9,375.6,111.6C371.4,109.3,367.1,108.1,362.6,108.1C357.8,108.1,353.2,109.3,348.8,111.7C344.4,114.1,340.9,117.3,338.2,121.3C335.6,125.4,333.8,130.6,333.0,136.9L390.2,136.9zM580.6,79.5L580.6,115.2L553.2,115.2L553.2,198.1C553.2,204.8,553.4,208.8,554.0,210.2C554.8,212.1,556.1,213.5,557.9,214.4C559.7,215.3,563.4,215.8,569.1,215.8L578.5,215.8L578.5,248.4L474.1,248.4L474.1,215.8L482.4,215.8C489.2,215.8,493.3,215.4,494.8,214.8C496.2,214.1,497.3,212.9,498.1,211.1C498.8,209.4,499.2,205.0,499.2,198.1L499.2,115.2L474.1,115.2L474.1,79.5L499.2,79.5L499.2,61.9C499.2,49.4,501.4,39.3,505.8,31.6C511.0,22.3,519.3,14.7,530.8,8.8C542.3,2.9,556.1,.0,572.1,.0C589.0,.0,602.3,3.6,611.9,10.7C621.5,17.9,626.3,25.8,626.3,34.5C626.3,41.4,624.1,47.0,619.8,51.4C615.4,55.7,609.7,57.9,602.6,57.9C599.8,57.9,597.0,57.5,594.4,56.6C591.7,55.8,589.2,54.5,586.8,52.8C585.1,51.7,582.3,48.9,578.2,44.3C574.3,40.2,571.7,37.7,570.4,36.9C568.7,35.9,567.1,35.4,565.6,35.4C561.7,35.4,558.7,37.1,556.5,40.7C554.3,44.3,553.2,51.3,553.2,61.9L553.2,79.5L580.6,79.5zM655.2,.0C663.8,.0,671.1,3.0,677.1,9.1C683.2,15.1,686.2,22.4,686.2,31.0C686.2,39.7,683.2,47.0,677.1,53.1C671.1,59.1,663.8,62.1,655.2,62.1C646.6,62.1,639.3,59.1,633.3,53.1C627.3,47.0,624.2,39.7,624.2,31.1C624.2,22.7,627.3,15.4,633.5,9.2C639.7,3.1,647.0,.0,655.2,.0zM682.6,75.5L682.6,200.5C682.6,206.5,683.0,210.2,683.6,211.5C684.3,212.9,685.5,213.9,687.3,214.7C689.0,215.4,692.9,215.8,699.0,215.8L708.2,215.8L708.2,248.4L603.6,248.4L603.6,215.8L612.6,215.8C618.4,215.8,622.2,215.5,623.8,214.8C625.4,214.2,626.7,213.2,627.5,211.7C628.2,210.2,628.6,207.3,628.6,202.9L628.6,122.2L603.6,122.2L603.6,90.4C612.5,89.9,621.0,89.0,629.2,87.5C637.4,86.0,644.7,84.3,651.1,82.2C655.3,80.9,660.5,78.6,666.5,75.5L682.6,75.5zM804.6,75.5L804.6,98.0C817.3,89.3,828.2,83.4,837.3,80.2C846.4,77.1,855.7,75.5,865.2,75.5C876.1,75.5,885.8,77.8,894.2,82.4C902.6,87.0,908.7,92.8,912.5,99.8C916.4,106.7,918.3,116.5,918.3,129.3L918.3,199.7C918.3,205.7,918.7,209.5,919.6,211.2C920.4,212.9,921.7,214.1,923.5,214.9C924.9,215.5,929.0,215.8,935.7,215.8L944.0,215.8L944.0,248.4L844.7,248.4L844.7,215.8C852.2,215.7,856.5,215.5,857.4,215.3C860.2,214.5,862.1,213.2,863.0,211.4C863.9,209.6,864.3,205.7,864.3,199.7L864.3,137.7C864.3,129.7,863.5,124.5,861.8,122.2C859.1,118.2,854.8,116.3,848.9,116.3C844.1,116.3,838.9,117.3,833.3,119.5C827.8,121.6,820.4,126.0,811.0,132.6L811.0,199.7C811.0,207.0,811.8,211.5,813.4,213.2C815.0,214.9,818.8,215.8,824.8,215.8L830.3,215.8L830.3,248.4L732.0,248.4L732.0,215.8L736.9,215.8C744.7,215.8,749.5,215.4,751.4,214.8C753.2,214.1,754.6,212.9,755.6,211.2C756.5,209.5,757.0,206.2,757.0,201.2L757.0,122.5L732.0,122.5L732.0,89.9C752.2,87.3,771.2,82.6,788.9,75.5L804.6,75.5zM1117.3,185.8L1140.4,209.2C1127.1,224.4,1113.6,235.4,1099.7,242.3C1085.9,249.1,1071.0,252.5,1055.0,252.5C1029.3,252.5,1007.6,243.8,990.0,226.3C972.4,208.9,963.6,187.8,963.6,163.1C963.6,146.9,967.5,132.0,975.4,118.5C983.3,105.1,994.3,94.5,1008.3,86.9C1022.3,79.3,1038.1,75.5,1055.8,75.5C1067.1,75.5,1077.4,77.1,1086.6,80.4C1095.9,83.7,1104.0,88.3,1110.9,94.4C1117.9,100.5,1123.4,107.9,1127.7,116.5C1131.9,125.1,1134.8,134.1,1136.4,143.3C1137.1,148.0,1137.4,155.3,1137.4,165.3L1023.5,165.3C1023.7,179.7,1027.9,191.3,1036.1,200.1C1044.3,209.0,1054.3,213.4,1066.2,213.4C1073.7,213.4,1081.9,211.1,1090.9,206.5C1099.8,202.0,1108.6,195.1,1117.3,185.8zM1083.4,136.9C1082.6,130.1,1081.0,124.8,1078.6,120.9C1076.1,117.0,1072.9,113.9,1068.7,111.6C1064.6,109.3,1060.3,108.1,1055.7,108.1C1051.0,108.1,1046.4,109.3,1042.0,111.7C1037.6,114.1,1034.1,117.3,1031.4,121.3C1028.7,125.4,1027.0,130.6,1026.2,136.9L1083.4,136.9z" fill="url(#lg1)" fill-rule="nonzero"/></svg>