<svg viewBox="0 0 1897 326.954" xmlns="http://www.w3.org/2000/svg" height="327" width="1897" xmlns:xlink="http://www.w3.org/1999/xlink"><defs><linearGradient id="lg1" y2="0%" y1="0%" x2="100%" x1="0%"><stop offset="0.23" stop-color="#ff770f"/><stop offset="0.64" stop-color="#7030a0"/></linearGradient></defs><path id="shape1" d="M.0,12.4L123.8,12.4C151.9,12.4,174.3,16.8,190.9,25.7C207.5,34.6,220.7,47.8,230.6,65.3C240.4,82.8,245.4,103.8,245.4,128.3C245.4,145.3,242.9,160.5,237.8,174.0C232.8,187.4,225.3,199.5,215.4,210.3C205.5,221.0,194.8,229.1,183.4,234.6C174.8,238.6,162.7,241.9,146.9,244.5C131.2,247.1,118.5,248.4,109.1,248.4L.0,248.4L.0,215.8L8.2,215.8C15.1,215.8,19.6,215.2,21.8,214.1C23.9,212.9,25.7,211.0,27.1,208.3C28.0,206.2,28.4,201.5,28.4,194.3L28.4,65.3C28.4,58.1,27.9,53.4,27.0,51.4C26.0,49.3,24.4,47.7,22.2,46.6C20.0,45.6,15.3,45.0,8.2,45.0L.0,45.0L.0,12.4zM86.5,50.1L86.5,197.1C86.5,202.1,86.8,205.2,87.3,206.3C88.2,208.0,89.6,209.1,91.3,209.8C93.0,210.4,97.3,210.7,103.9,210.7C122.4,210.7,136.9,207.8,147.3,202.1C157.8,196.4,166.2,187.3,172.6,174.7C179.0,162.0,182.3,147.0,182.3,129.6C182.3,112.4,179.2,97.5,173.2,84.8C167.2,72.1,159.7,63.1,150.8,57.9C141.9,52.7,129.1,50.1,112.5,50.1L86.5,50.1zM323.1,.0C331.6,.0,338.9,3.0,345.0,9.1C351.0,15.1,354.0,22.4,354.0,31.0C354.0,39.7,351.0,47.0,345.0,53.1C338.9,59.1,331.6,62.1,323.1,62.1C314.5,62.1,307.2,59.1,301.1,53.1C295.1,47.0,292.1,39.7,292.1,31.1C292.1,22.7,295.2,15.4,301.4,9.2C307.6,3.1,314.8,.0,323.1,.0zM350.5,75.5L350.5,200.5C350.5,206.5,350.8,210.2,351.5,211.5C352.2,212.9,353.4,213.9,355.1,214.7C356.9,215.4,360.8,215.8,366.9,215.8L376.0,215.8L376.0,248.4L271.4,248.4L271.4,215.8L280.4,215.8C286.3,215.8,290.0,215.5,291.7,214.8C293.3,214.2,294.5,213.2,295.3,211.7C296.1,210.2,296.5,207.3,296.5,202.9L296.5,122.2L271.4,122.2L271.4,90.4C280.4,89.9,288.9,89.0,297.1,87.5C305.3,86.0,312.6,84.3,319.0,82.2C323.2,80.9,328.3,78.6,334.4,75.5L350.5,75.5zM551.8,184.5L576.7,206.3C563.4,222.4,549.5,234.2,535.2,241.5C520.9,248.8,505.5,252.5,489.2,252.5C463.0,252.5,441.2,244.0,423.6,226.9C406.1,209.9,397.3,189.1,397.3,164.7C397.3,148.1,401.4,132.9,409.6,119.1C417.7,105.4,429.0,94.7,443.2,87.0C457.5,79.3,474.4,75.5,493.8,75.5C517.0,75.5,536.0,80.9,550.7,91.6C565.4,102.4,572.8,113.8,572.8,125.7C572.8,130.8,571.6,135.4,569.3,139.4C567.0,143.4,563.5,146.6,558.7,149.1C554.0,151.6,549.0,152.8,543.7,152.8C539.4,152.8,535.6,152.0,532.2,150.3C528.8,148.6,526.0,146.4,523.7,143.8C522.7,142.7,520.7,139.2,517.8,133.4C514.1,126.0,511.2,121.2,509.2,118.8C507.1,116.4,504.7,114.6,501.9,113.3C499.1,112.0,495.8,111.4,492.2,111.4C486.4,111.4,480.8,113.2,475.4,117.0C470.0,120.8,465.6,126.5,462.2,134.2C458.8,141.9,457.0,150.4,457.0,159.9C457.0,170.3,459.1,179.6,463.1,187.9C467.2,196.2,472.6,202.5,479.5,206.8C486.3,211.1,493.8,213.2,502.1,213.2C509.9,213.2,517.9,211.1,525.9,206.8C533.9,202.5,542.6,195.1,551.8,184.5zM675.6,21.5L675.6,79.5L730.1,79.5L730.1,115.6L675.6,115.6L675.6,174.5C675.6,187.8,676.3,196.3,677.7,200.1C679.2,203.9,681.8,206.9,685.6,209.2C690.7,212.2,696.5,213.7,703.0,213.7C714.7,213.7,726.2,210.0,737.7,202.4L737.7,238.6C727.9,243.2,719.0,246.5,711.1,248.3C703.1,250.2,694.5,251.1,685.3,251.1C674.8,251.1,665.5,249.8,657.4,247.2C649.4,244.5,642.5,240.7,636.8,235.8C631.1,230.9,627.1,225.7,624.9,220.2C622.7,214.6,621.6,206.6,621.6,196.1L621.6,115.6L596.3,115.6L596.3,83.1C605.3,80.2,613.0,76.0,619.4,70.5C625.9,65.0,631.0,58.4,634.9,50.8C638.8,43.1,641.5,33.3,643.0,21.5L675.6,21.5zM810.4,.0C819.0,.0,826.3,3.0,832.4,9.1C838.4,15.1,841.4,22.4,841.4,31.0C841.4,39.7,838.4,47.0,832.4,53.1C826.3,59.1,819.0,62.1,810.4,62.1C801.9,62.1,794.6,59.1,788.5,53.1C782.5,47.0,779.5,39.7,779.5,31.1C779.5,22.7,782.6,15.4,788.8,9.2C795.0,3.1,802.2,.0,810.4,.0zM837.9,75.5L837.9,200.5C837.9,206.5,838.2,210.2,838.9,211.5C839.6,212.9,840.8,213.9,842.5,214.7C844.3,215.4,848.2,215.8,854.3,215.8L863.4,215.8L863.4,248.4L758.8,248.4L758.8,215.8L767.8,215.8C773.7,215.8,777.4,215.5,779.1,214.8C780.7,214.2,781.9,213.2,782.7,211.7C783.5,210.2,783.9,207.3,783.9,202.9L783.9,122.2L758.8,122.2L758.8,90.4C767.7,89.9,776.3,89.0,784.5,87.5C792.6,86.0,800.0,84.3,806.4,82.2C810.6,80.9,815.7,78.6,821.8,75.5L837.9,75.5zM978.8,75.5C998.1,75.5,1014.9,79.3,1029.2,86.8C1043.5,94.4,1054.6,104.7,1062.3,117.7C1070.0,130.7,1073.9,146.0,1073.9,163.5C1073.9,189.9,1065.3,211.3,1048.2,227.8C1031.0,244.3,1008.1,252.5,979.5,252.5C950.2,252.5,927.0,244.2,909.7,227.6C893.0,211.8,884.7,190.4,884.7,163.5C884.7,145.8,888.5,130.5,896.1,117.8C903.7,105.0,914.7,94.8,929.2,87.1C943.6,79.3,960.2,75.5,978.8,75.5zM979.5,112.5C973.0,112.5,967.0,114.5,961.3,118.3C955.7,122.1,951.3,127.8,948.2,135.2C945.1,142.7,943.6,152.1,943.6,163.6C943.6,175.5,945.1,185.3,948.1,193.1C951.2,200.9,955.4,206.6,960.8,210.4C966.1,214.1,972.0,215.9,978.4,215.9C988.4,215.9,996.9,211.7,1004.0,203.3C1011.1,194.9,1014.7,181.9,1014.7,164.2C1014.7,147.0,1011.4,134.1,1004.8,125.5C998.2,116.9,989.7,112.5,979.5,112.5zM1176.4,75.5L1176.4,98.0C1189.2,89.3,1200.1,83.4,1209.2,80.2C1218.3,77.1,1227.5,75.5,1237.0,75.5C1248.0,75.5,1257.6,77.8,1266.0,82.4C1274.4,87.0,1280.6,92.8,1284.4,99.8C1288.2,106.7,1290.2,116.5,1290.2,129.3L1290.2,199.7C1290.2,205.7,1290.6,209.5,1291.4,211.2C1292.3,212.9,1293.6,214.1,1295.4,214.9C1296.8,215.5,1300.8,215.8,1307.6,215.8L1315.9,215.8L1315.9,248.4L1216.5,248.4L1216.5,215.8C1224.1,215.7,1228.3,215.5,1229.2,215.3C1232.1,214.5,1233.9,213.2,1234.8,211.4C1235.7,209.6,1236.2,205.7,1236.2,199.7L1236.2,137.7C1236.2,129.7,1235.3,124.5,1233.6,122.2C1230.9,118.2,1226.6,116.3,1220.8,116.3C1215.9,116.3,1210.7,117.3,1205.2,119.5C1199.7,121.6,1192.2,126.0,1182.9,132.6L1182.9,199.7C1182.9,207.0,1183.7,211.5,1185.3,213.2C1186.9,214.9,1190.7,215.8,1196.7,215.8L1202.2,215.8L1202.2,248.4L1103.8,248.4L1103.8,215.8L1108.7,215.8C1116.5,215.8,1121.4,215.4,1123.2,214.8C1125.1,214.1,1126.5,212.9,1127.4,211.2C1128.4,209.5,1128.9,206.2,1128.9,201.2L1128.9,122.5L1103.8,122.5L1103.8,89.9C1124.1,87.3,1143.1,82.6,1160.7,75.5L1176.4,75.5zM1438.3,146.0L1438.3,133.5C1438.3,126.1,1437.7,120.9,1436.5,118.1C1435.2,115.3,1433.0,113.0,1429.7,111.1C1426.4,109.2,1422.4,108.3,1417.5,108.3C1413.8,108.3,1410.4,108.9,1407.4,110.2C1404.3,111.4,1401.9,113.0,1400.1,114.9C1398.3,116.8,1396.2,120.5,1393.8,126.1C1390.8,133.1,1387.2,138.1,1382.9,141.1C1378.7,144.2,1373.7,145.7,1367.9,145.7C1360.7,145.7,1354.8,143.5,1350.2,138.9C1345.6,134.4,1343.2,128.8,1343.2,122.2C1343.2,114.6,1345.6,107.9,1350.3,102.0C1356.7,94.3,1366.1,87.9,1378.6,82.9C1391.1,78.0,1405.2,75.5,1420.9,75.5C1436.6,75.5,1449.9,78.0,1460.9,83.1C1471.9,88.2,1479.6,94.2,1484.0,101.3C1488.3,108.3,1490.5,119.1,1490.5,133.5L1490.5,194.1C1490.5,201.6,1490.9,206.3,1491.7,208.4C1492.4,210.5,1494.1,212.3,1496.7,213.9C1499.3,215.5,1502.2,216.3,1505.4,216.3C1508.5,216.3,1512.8,215.4,1518.1,213.6L1518.1,246.6C1508.5,249.6,1499.3,251.1,1490.5,251.1C1480.1,251.1,1471.2,249.4,1463.9,246.1C1456.6,242.7,1450.4,237.6,1445.5,230.8C1434.2,238.2,1423.9,243.4,1414.7,246.5C1405.5,249.6,1396.7,251.1,1388.1,251.1C1372.0,251.1,1358.9,246.6,1349.0,237.5C1339.1,228.4,1334.1,217.2,1334.1,203.9C1334.1,196.4,1335.8,189.4,1339.3,183.1C1342.7,176.8,1347.8,171.3,1354.7,166.5C1361.5,161.8,1372.0,157.6,1386.3,153.9C1400.6,150.2,1417.9,147.6,1438.3,146.0zM1438.3,174.1C1423.6,176.3,1413.1,178.5,1407.0,180.7C1400.9,182.9,1396.6,185.6,1394.0,188.9C1391.4,192.3,1390.1,195.7,1390.1,199.2C1390.1,203.7,1391.8,207.5,1395.2,210.5C1398.6,213.6,1403.1,215.1,1408.9,215.1C1412.6,215.1,1416.9,214.1,1421.8,212.2C1426.8,210.3,1432.3,207.5,1438.3,203.8L1438.3,174.1zM1613.1,75.5L1613.1,100.0C1622.2,90.5,1630.0,84.1,1636.6,80.6C1643.2,77.2,1649.6,75.5,1655.7,75.5C1661.2,75.5,1666.2,76.7,1670.5,79.3C1674.9,81.8,1678.3,85.5,1680.9,90.2C1683.4,94.9,1684.7,100.0,1684.7,105.4C1684.7,112.5,1682.3,119.0,1677.7,124.7C1673.0,130.5,1666.4,133.4,1657.9,133.4C1655.6,133.4,1653.6,133.2,1651.9,132.8C1650.1,132.5,1646.4,131.4,1640.7,129.5C1637.8,128.6,1635.4,128.1,1633.5,128.1C1630.5,128.1,1625.6,130.0,1618.9,133.7L1618.9,199.9C1618.9,205.5,1619.3,209.2,1620.1,210.9C1621.0,212.6,1622.4,213.8,1624.3,214.6C1626.2,215.4,1630.4,215.8,1636.8,215.8L1644.2,215.8L1644.2,248.4L1539.8,248.4L1539.8,215.8L1548.5,215.8C1554.8,215.8,1558.7,215.4,1560.2,214.8C1561.7,214.1,1562.9,212.9,1563.7,211.2C1564.5,209.5,1564.9,205.7,1564.9,199.9L1564.9,122.2L1539.8,122.2L1539.8,89.7C1558.2,88.6,1577.3,83.8,1597.2,75.5L1613.1,75.5zM1686.8,79.5L1792.4,79.5L1792.4,112.2L1785.5,112.2C1779.1,112.2,1775.1,112.6,1773.5,113.5C1771.8,114.3,1771.0,115.5,1771.0,117.1C1771.0,118.5,1772.2,122.0,1774.6,127.8L1800.0,189.0L1826.6,127.8C1828.7,123.1,1829.7,119.8,1829.7,117.8C1829.7,116.0,1828.8,114.6,1827.1,113.6C1825.4,112.7,1821.5,112.2,1815.5,112.2L1805.8,112.2L1805.8,79.5L1897.2,79.5L1897.2,112.2C1889.1,112.3,1884.4,112.6,1883.0,113.0C1881.1,113.5,1879.5,114.3,1878.3,115.6C1877.0,116.8,1875.0,120.3,1872.1,125.9L1795.7,282.8C1787.6,299.1,1778.9,310.6,1769.4,317.1C1759.8,323.7,1748.4,327.0,1735.2,327.0C1722.4,327.0,1712.0,323.5,1704.0,316.7C1696.1,309.9,1692.1,302.2,1692.1,293.6C1692.1,286.8,1694.5,281.0,1699.2,276.1C1703.9,271.2,1709.6,268.7,1716.3,268.7C1720.8,268.7,1725.2,269.9,1729.5,272.1C1732.3,273.6,1735.2,276.1,1738.1,279.6C1739.9,281.8,1741.4,283.3,1742.4,283.9C1743.5,284.5,1744.5,284.8,1745.6,284.8C1747.9,284.8,1750.2,283.7,1752.5,281.4C1755.9,277.9,1759.7,271.6,1764.0,262.3L1770.4,248.4L1712.9,127.8C1710.1,121.7,1707.9,117.8,1706.4,116.3C1704.9,114.7,1703.1,113.6,1701.2,113.0C1699.3,112.5,1694.5,112.2,1686.8,112.2L1686.8,79.5z" fill="url(#lg1)" fill-rule="nonzero"/></svg>