<svg viewBox="0 0 2023 247.754" xmlns="http://www.w3.org/2000/svg" height="248" width="2023" xmlns:xlink="http://www.w3.org/1999/xlink"><defs><linearGradient id="lg1" y2="0%" y1="0%" x2="100%" x1="0%"><stop offset="0.23" stop-color="#ff770f"/><stop offset="0.64" stop-color="#7030a0"/></linearGradient></defs><path id="shape1" d="M.0,7.6L191.9,7.6L214.1,69.7L199.2,75.3C195.5,65.2,191.4,57.2,187.0,51.4C182.6,45.6,177.3,40.6,171.1,36.6C165.0,32.5,158.8,29.8,152.5,28.4C146.2,27.1,134.9,26.4,118.5,26.4L61.3,26.4L61.3,112.9L89.8,112.9C100.3,112.9,108.2,111.1,113.6,107.5C119.0,104.0,122.7,99.6,124.7,94.3C126.3,90.3,127.1,83.4,127.1,73.6L127.1,69.7L143.7,69.7L143.7,173.3L127.1,173.3L127.1,164.3C127.1,156.4,126.5,150.7,125.3,147.2C124.1,143.7,121.9,140.4,118.8,137.3C115.6,134.2,112.2,132.1,108.5,131.0C104.8,129.9,98.6,129.3,89.8,129.3L61.3,129.3L61.3,206.0C61.3,214.0,61.6,218.9,62.4,220.6C63.1,222.3,64.3,223.6,66.0,224.4C67.7,225.2,72.3,225.6,79.9,225.6L115.3,225.6C135.1,225.6,150.5,223.2,161.7,218.5C172.8,213.7,182.6,206.5,191.1,196.7C197.7,189.1,204.1,178.3,210.2,164.3L225.6,169.7L199.2,243.7L.0,243.7L.0,229.5L6.8,229.5C14.7,229.5,19.6,229.0,21.5,228.0C24.4,226.5,26.7,224.2,28.3,220.9C29.4,218.7,30.0,213.8,30.0,206.3L30.0,43.7C30.0,36.3,29.2,31.3,27.8,28.8C26.3,26.3,23.7,24.4,20.1,23.0C18.2,22.2,11.5,21.8,.0,21.8L.0,7.6zM245.2,104.6L245.2,90.5C255.3,89.4,262.8,88.1,267.7,86.5C272.7,84.9,279.9,81.5,289.2,76.3L301.4,76.3L301.4,108.5C316.3,96.0,329.0,87.5,339.5,83.0C350.0,78.6,360.7,76.3,371.5,76.3C380.8,76.3,388.9,77.9,396.0,81.0C403.1,84.1,408.9,88.3,413.4,93.6C417.8,98.9,420.8,104.9,422.2,111.7C423.1,115.9,423.6,122.2,423.6,130.6L423.6,205.1C423.6,214.0,424.2,219.7,425.5,222.3C426.8,224.8,428.9,226.7,431.7,227.8C434.5,228.9,441.5,229.5,452.5,229.5L452.5,243.7L365.5,243.7L365.5,229.5L370.3,229.5C378.4,229.5,383.9,228.7,386.9,227.3C389.8,225.8,391.9,223.7,393.2,220.8C394.5,218.0,395.2,212.3,395.2,203.6L395.2,141.3C395.2,128.4,394.1,119.5,392.0,114.6C389.9,109.6,386.4,105.6,381.4,102.5C376.3,99.4,370.0,97.8,362.3,97.8C353.2,97.8,343.4,100.2,333.0,104.8C322.7,109.5,312.6,116.4,302.9,125.6L302.9,203.6C302.9,212.4,303.6,218.3,304.9,221.2C306.2,224.1,308.3,226.3,311.2,227.8C313.2,228.9,318.7,229.5,327.5,229.5L332.4,229.5L332.4,243.7L245.0,243.7L245.0,229.5L249.3,229.5C257.7,229.5,263.4,228.8,266.5,227.4C269.6,226.0,271.7,223.4,273.0,219.8C273.6,218.0,274.0,211.8,274.0,201.2L274.0,104.6L245.2,104.6zM463.4,80.4L527.5,77.8L527.5,186.8C527.5,196.4,528.8,204.0,531.5,209.7C534.1,215.3,538.2,219.7,543.7,222.8C549.1,225.9,555.5,227.4,562.9,227.4C571.9,227.4,582.1,225.0,593.6,220.2C605.0,215.3,616.5,208.1,627.8,198.5L627.8,119.6C627.8,111.3,627.2,105.8,626.0,103.2C624.7,100.6,622.5,98.5,619.4,97.0C616.2,95.4,611.3,94.6,604.5,94.6L592.1,94.6L592.1,80.4L656.3,77.8L656.3,204.1C656.3,212.2,657.0,217.8,658.3,220.9C659.7,224.0,661.7,226.2,664.3,227.5C667.0,228.8,672.3,229.5,680.3,229.5L685.6,229.5L685.6,243.7L629.4,246.6L629.4,215.3C613.9,227.6,600.4,236.0,588.9,240.7C577.4,245.4,565.7,247.8,553.9,247.8C545.1,247.8,537.4,246.6,531.0,244.2C524.5,241.8,518.8,238.3,513.9,233.5C509.0,228.8,505.2,223.1,502.6,216.4C500.0,209.8,498.7,202.7,498.7,195.1L498.7,118.1C498.7,111.2,498.1,106.4,496.9,103.7C495.6,100.9,493.6,98.7,490.7,97.1C487.8,95.4,483.9,94.6,478.9,94.6L463.4,94.6L463.4,80.4zM706.7,104.9L706.7,90.5C715.1,89.7,722.5,88.3,728.9,86.3C735.2,84.3,742.5,81.0,750.6,76.3L763.2,76.3L763.2,104.8C776.0,94.6,786.1,87.8,793.3,84.3C804.4,79.0,814.9,76.3,824.9,76.3C831.8,76.3,838.6,77.6,845.2,80.1C851.8,82.7,857.1,85.8,861.1,89.5C865.1,93.2,868.5,98.3,871.3,104.8C883.2,94.3,894.1,86.9,904.2,82.7C914.3,78.4,924.6,76.3,934.9,76.3C944.9,76.3,953.6,78.4,961.3,82.5C968.9,86.6,974.4,91.8,977.8,98.0C981.3,104.2,983.0,113.3,983.0,125.2L983.0,203.8C983.0,212.0,983.2,216.8,983.5,218.1C984.1,220.3,985.3,222.3,987.1,224.2C989.0,226.1,991.1,227.5,993.4,228.3C995.8,229.1,1000.2,229.5,1006.6,229.5L1011.9,229.5L1011.9,243.7L927.2,243.7L927.2,229.5C936.9,229.4,943.2,228.7,946.0,227.4C948.9,226.1,951.0,223.9,952.5,221.0C953.9,218.1,954.6,212.3,954.6,203.8L954.6,129.1C954.6,119.6,953.7,113.1,952.0,109.5C950.3,105.9,947.3,102.9,943.0,100.4C938.6,98.0,933.2,96.8,926.8,96.8C918.7,96.8,910.3,98.9,901.5,103.2C889.7,109.1,880.5,115.7,873.7,123.0L873.7,203.8C873.7,211.5,874.0,216.6,874.8,219.1C875.5,221.5,876.8,223.5,878.5,225.2C880.3,226.8,882.3,227.9,884.6,228.5C886.9,229.2,892.5,229.5,901.4,229.5L901.4,243.7L818.2,243.7L818.2,229.5L822.9,229.5C829.6,229.5,834.3,228.7,837.0,227.1C839.8,225.5,842.0,223.1,843.6,219.8C844.7,217.2,845.3,211.9,845.3,203.8L845.3,131.7C845.3,121.1,844.4,113.9,842.8,110.2C841.2,106.4,838.0,103.3,833.4,100.7C828.7,98.1,823.3,96.8,817.1,96.8C809.8,96.8,802.3,98.6,794.9,102.2C783.8,107.5,773.6,114.5,764.4,123.0L764.4,210.0C764.4,215.2,765.1,219.0,766.5,221.4C767.9,223.9,770.1,225.8,773.2,227.3C776.2,228.7,780.4,229.5,785.7,229.5L791.9,229.5L791.9,243.7L707.0,243.7L707.0,229.5L711.5,229.5C719.3,229.5,724.4,228.9,726.8,227.6C730.4,225.9,733.0,223.2,734.6,219.5C735.5,217.5,735.9,212.2,735.9,203.8L735.9,104.9L706.7,104.9zM1031.9,104.6L1031.9,90.5C1040.1,89.9,1047.4,88.5,1053.8,86.4C1060.3,84.4,1067.6,81.0,1075.8,76.3L1088.4,76.3L1088.4,108.3C1096.4,98.5,1105.8,90.7,1116.4,85.0C1127.0,79.2,1136.5,76.3,1145.0,76.3C1153.3,76.3,1159.9,78.3,1164.8,82.2C1169.6,86.2,1172.0,91.0,1172.0,96.6C1172.0,100.7,1170.4,104.3,1167.2,107.4C1164.0,110.5,1160.1,112.0,1155.6,112.0C1153.6,112.0,1151.8,111.7,1150.4,111.2C1148.9,110.6,1146.8,109.4,1143.9,107.5C1137.7,103.4,1132.5,101.4,1128.4,101.4C1122.7,101.4,1116.5,103.7,1109.8,108.5C1101.2,114.6,1094.5,120.5,1089.6,126.4L1089.6,204.4C1089.6,211.2,1090.0,215.8,1090.7,218.2C1091.5,220.6,1092.7,222.7,1094.4,224.5C1096.1,226.2,1098.1,227.5,1100.6,228.3C1103.1,229.1,1107.4,229.5,1113.7,229.5L1119.2,229.5L1119.2,243.7L1031.7,243.7L1031.7,229.5L1039.0,229.5C1045.9,229.5,1050.4,228.9,1052.6,227.6C1055.5,225.9,1057.7,223.6,1059.1,220.6C1060.5,217.6,1061.2,212.2,1061.2,204.4L1061.2,104.6L1031.9,104.6zM1305.5,145.7L1305.6,127.3C1305.6,114.7,1302.1,105.8,1295.0,100.4C1288.0,95.1,1278.1,92.4,1265.4,92.4C1259.0,92.4,1253.5,93.2,1248.7,94.7C1244.0,96.2,1240.2,98.3,1237.3,100.9C1234.4,103.6,1232.3,106.6,1230.9,110.0C1230.4,111.2,1229.0,116.0,1226.9,124.4C1224.3,134.5,1219.0,139.6,1211.1,139.6C1206.6,139.6,1203.0,138.1,1200.2,135.1C1197.4,132.1,1196.1,128.1,1196.1,123.0C1196.1,115.6,1198.8,108.3,1204.4,101.1C1209.9,94.0,1218.3,88.0,1229.7,83.3C1241.0,78.7,1254.4,76.3,1269.9,76.3C1284.3,76.3,1296.6,78.5,1306.9,83.0C1317.2,87.5,1324.7,93.8,1329.6,102.2C1333.0,107.9,1334.7,118.4,1334.7,133.6L1334.7,198.7C1334.7,208.0,1334.9,214.0,1335.5,216.8C1336.8,221.6,1338.9,225.3,1342.0,227.7C1345.1,230.1,1349.2,231.3,1354.1,231.3C1359.3,231.3,1365.5,230.1,1372.7,227.8L1372.7,242.5C1363.4,245.2,1355.0,246.6,1347.5,246.6C1339.5,246.6,1332.8,245.4,1327.3,243.2C1321.8,240.9,1317.3,237.6,1313.9,233.3C1310.4,228.9,1308.1,223.8,1307.1,217.8C1293.5,228.4,1281.3,235.9,1270.4,240.1C1259.4,244.4,1248.4,246.6,1237.2,246.6C1221.6,246.6,1209.0,242.3,1199.3,233.9C1189.6,225.4,1184.7,215.5,1184.7,204.1C1184.7,197.2,1186.5,190.7,1190.1,184.5C1193.6,178.3,1199.0,172.8,1206.3,168.0C1213.6,163.3,1225.1,159.1,1240.6,155.5C1256.2,151.9,1277.9,148.6,1305.5,145.7zM1305.4,160.4C1279.3,164.3,1263.1,166.9,1256.8,168.4C1244.5,171.2,1235.7,174.3,1230.4,177.7C1225.1,181.1,1221.3,184.7,1219.1,188.6C1216.8,192.5,1215.7,196.6,1215.7,201.0C1215.7,205.4,1217.0,209.7,1219.5,213.8C1222.0,217.9,1225.6,221.2,1230.3,223.6C1234.9,225.9,1239.8,227.1,1245.0,227.1C1252.3,227.1,1260.6,225.4,1269.9,221.9C1279.1,218.4,1291.0,211.5,1305.5,201.4L1305.4,160.4zM1430.6,22.8L1442.6,22.8L1442.6,80.4L1492.8,80.4L1492.8,97.3L1442.6,97.3L1442.6,199.4C1442.6,208.0,1443.3,214.2,1444.9,218.0C1446.4,221.7,1449.0,224.7,1452.6,227.1C1456.3,229.5,1460.4,230.7,1464.9,230.7C1475.6,230.7,1487.5,225.9,1500.5,216.3L1500.5,232.7C1485.6,242.7,1470.7,247.8,1455.5,247.8C1446.9,247.8,1439.2,245.8,1432.2,242.0C1425.3,238.2,1420.5,233.7,1418.0,228.5C1415.4,223.3,1414.1,214.2,1414.1,201.4L1414.1,97.3L1384.5,97.3L1384.5,83.1C1394.0,80.9,1401.7,77.6,1407.5,73.1C1413.4,68.6,1418.1,62.7,1421.7,55.5C1425.4,48.3,1428.3,37.4,1430.6,22.8zM1557.5,.0C1562.9,.0,1567.5,1.9,1571.4,5.7C1575.2,9.4,1577.1,14.0,1577.1,19.5C1577.1,24.9,1575.2,29.5,1571.4,33.3C1567.5,37.2,1562.9,39.1,1557.5,39.1C1552.1,39.1,1547.4,37.2,1543.6,33.3C1539.8,29.5,1537.9,24.9,1537.9,19.5C1537.9,14.0,1539.8,9.4,1543.6,5.7C1547.4,1.9,1552.1,.0,1557.5,.0zM1514.5,104.6L1514.5,90.5C1523.9,89.4,1531.7,87.9,1538.1,85.9C1544.5,83.8,1551.7,80.7,1559.9,76.3L1572.2,76.3L1572.2,212.0C1572.2,216.8,1572.9,220.3,1574.2,222.7C1575.6,225.1,1577.5,226.8,1579.9,227.9C1582.3,228.9,1586.8,229.5,1593.2,229.5L1601.1,229.5L1601.1,243.7L1514.5,243.7L1514.5,229.5L1521.4,229.5C1529.0,229.5,1534.1,228.8,1536.7,227.4C1539.3,226.1,1541.1,224.2,1542.2,221.7C1543.2,219.2,1543.8,213.4,1543.8,204.3L1543.8,104.6L1514.5,104.6zM1706.0,76.3C1722.6,76.3,1737.0,79.8,1749.1,86.6C1761.2,93.5,1770.8,103.6,1777.8,116.8C1784.8,130.0,1788.3,145.0,1788.3,162.0C1788.3,178.9,1784.7,193.9,1777.5,207.1C1770.4,220.3,1760.6,230.4,1748.2,237.3C1735.9,244.3,1721.1,247.8,1704.0,247.8C1676.7,247.8,1656.2,239.2,1642.5,222.2C1628.8,205.2,1621.9,185.1,1621.9,162.1C1621.9,145.3,1625.5,130.4,1632.6,117.4C1639.7,104.3,1649.6,94.2,1662.4,87.1C1675.2,79.9,1689.8,76.3,1706.0,76.3zM1704.7,92.7C1691.8,92.7,1680.9,97.8,1672.0,108.0C1660.7,120.6,1655.1,139.0,1655.1,163.1C1655.1,186.4,1659.9,204.1,1669.5,216.3C1678.1,227.1,1689.9,232.5,1704.8,232.5C1714.4,232.5,1723.0,230.0,1730.5,224.9C1738.0,219.8,1744.0,211.7,1748.7,200.6C1753.3,189.5,1755.6,176.5,1755.6,161.4C1755.6,146.8,1753.1,133.6,1748.2,122.0C1744.3,112.8,1738.5,105.6,1730.8,100.4C1723.1,95.3,1714.4,92.7,1704.7,92.7zM1815.7,104.6L1815.7,90.5C1825.7,89.4,1833.2,88.1,1838.2,86.5C1843.1,84.9,1850.3,81.5,1859.7,76.3L1871.9,76.3L1871.9,108.5C1886.7,96.0,1899.4,87.5,1910.0,83.0C1920.5,78.6,1931.2,76.3,1942.0,76.3C1951.2,76.3,1959.4,77.9,1966.5,81.0C1973.6,84.1,1979.4,88.3,1983.8,93.6C1988.3,98.9,1991.2,104.9,1992.7,111.7C1993.6,115.9,1994.0,122.2,1994.0,130.6L1994.0,205.1C1994.0,214.0,1994.7,219.7,1996.0,222.3C1997.3,224.8,1999.3,226.7,2002.2,227.8C2005.0,228.9,2011.9,229.5,2023.0,229.5L2023.0,243.7L1936.0,243.7L1936.0,229.5L1940.7,229.5C1948.9,229.5,1954.4,228.7,1957.3,227.3C1960.3,225.8,1962.4,223.7,1963.7,220.8C1965.0,218.0,1965.6,212.3,1965.6,203.6L1965.6,141.3C1965.6,128.4,1964.6,119.5,1962.5,114.6C1960.4,109.6,1956.8,105.6,1951.8,102.5C1946.8,99.4,1940.5,97.8,1932.8,97.8C1923.6,97.8,1913.9,100.2,1903.5,104.8C1893.1,109.5,1883.1,116.4,1873.4,125.6L1873.4,203.6C1873.4,212.4,1874.0,218.3,1875.3,221.2C1876.6,224.1,1878.7,226.3,1881.7,227.8C1883.7,228.9,1889.1,229.5,1897.9,229.5L1902.8,229.5L1902.8,243.7L1815.5,243.7L1815.5,229.5L1819.8,229.5C1828.2,229.5,1833.9,228.8,1837.0,227.4C1840.0,226.0,1842.2,223.4,1843.4,219.8C1844.1,218.0,1844.4,211.8,1844.4,201.2L1844.4,104.6L1815.7,104.6z" fill="url(#lg1)" fill-rule="nonzero"/></svg>