<svg viewBox="0 0 1615 252.492" xmlns="http://www.w3.org/2000/svg" height="252" width="1615" xmlns:xlink="http://www.w3.org/1999/xlink"><defs><linearGradient id="lg1" y2="0%" y1="0%" x2="100%" x1="0%"><stop offset="0.23" stop-color="#ff770f"/><stop offset="0.64" stop-color="#7030a0"/></linearGradient></defs><path id="shape1" d="M.0,12.4L195.3,12.4L222.0,87.7L191.4,98.3C186.4,87.4,181.7,79.1,177.2,73.5C172.7,67.9,167.3,63.3,161.1,59.6C154.9,55.8,148.2,53.4,141.0,52.1C136.1,51.3,127.5,50.9,115.2,50.9L86.1,50.9L86.1,113.6L101.0,113.6C106.7,113.6,111.1,112.7,114.3,111.0C117.5,109.3,119.8,107.1,121.3,104.4C122.7,101.7,123.4,97.2,123.4,90.9L123.4,78.4L153.8,78.4L153.8,184.0L123.4,184.0L123.4,168.7C123.4,164.3,123.0,161.1,122.2,159.1C121.2,156.4,119.8,154.2,118.0,152.5C116.1,150.8,114.1,149.6,111.8,148.9C109.5,148.2,105.3,147.9,99.2,147.9L86.1,147.9L86.1,197.5C86.1,203.5,86.6,207.5,87.7,209.6C88.7,211.7,90.3,213.2,92.6,214.2C94.8,215.3,99.2,215.8,105.6,215.8L115.2,215.8L115.2,248.4L.0,248.4L.0,215.8L7.7,215.8C16.2,215.8,21.8,214.7,24.4,212.5C27.1,210.3,28.4,205.8,28.4,199.2L28.4,63.5C28.4,57.3,27.9,53.1,26.9,51.1C25.9,49.1,24.2,47.6,21.8,46.5C19.4,45.5,14.7,45.0,7.7,45.0L.0,45.0L.0,12.4zM230.1,79.5L309.1,78.0L309.1,187.8C309.1,195.6,309.6,200.8,310.6,203.4C311.5,206.0,313.3,208.1,315.8,209.8C318.4,211.4,321.5,212.2,325.4,212.2C331.0,212.2,337.0,210.9,343.3,208.2C345.8,207.0,352.4,203.0,363.1,196.1L363.1,130.1C363.1,124.4,362.7,120.4,361.7,118.3C360.8,116.1,359.5,114.6,357.8,113.6C356.1,112.7,352.8,112.2,347.9,112.2L338.1,112.2L338.1,79.5L417.4,78.0L417.4,199.2C417.4,205.5,417.8,209.5,418.5,211.1C419.3,212.8,420.5,213.9,422.1,214.7C423.7,215.4,427.6,215.8,433.9,215.8L442.8,215.8L442.8,248.4L368.5,250.5L368.5,230.5C358.6,237.8,348.6,243.3,338.6,247.0C328.6,250.7,318.5,252.5,308.4,252.5C300.3,252.5,292.8,251.2,286.0,248.5C279.2,245.9,273.4,242.3,268.8,237.9C264.2,233.4,260.8,228.2,258.5,222.2C256.3,216.2,255.1,208.5,255.1,199.2L255.1,129.5C255.1,123.0,254.8,119.0,254.0,117.3C253.3,115.6,252.1,114.3,250.4,113.5C248.7,112.6,245.0,112.2,239.5,112.2L230.1,112.2L230.1,79.5zM536.7,75.5L536.7,98.0C549.5,89.3,560.4,83.4,569.5,80.2C578.6,77.1,587.9,75.5,597.3,75.5C608.3,75.5,617.9,77.8,626.4,82.4C634.8,87.0,640.9,92.8,644.7,99.8C648.5,106.7,650.5,116.5,650.5,129.3L650.5,199.7C650.5,205.7,650.9,209.5,651.7,211.2C652.6,212.9,653.9,214.1,655.7,214.9C657.1,215.5,661.1,215.8,667.9,215.8L676.2,215.8L676.2,248.4L576.9,248.4L576.9,215.8C584.4,215.7,588.6,215.5,589.5,215.3C592.4,214.5,594.2,213.2,595.1,211.4C596.0,209.6,596.5,205.7,596.5,199.7L596.5,137.7C596.5,129.7,595.6,124.5,593.9,122.2C591.2,118.2,586.9,116.3,581.1,116.3C576.2,116.3,571.0,117.3,565.5,119.5C560.0,121.6,552.5,126.0,543.2,132.6L543.2,199.7C543.2,207.0,544.0,211.5,545.6,213.2C547.2,214.9,551.0,215.8,557.0,215.8L562.5,215.8L562.5,248.4L464.1,248.4L464.1,215.8L469.1,215.8C476.8,215.8,481.7,215.4,483.5,214.8C485.4,214.1,486.8,212.9,487.8,211.2C488.7,209.5,489.2,206.2,489.2,201.2L489.2,122.5L464.1,122.5L464.1,89.9C484.4,87.3,503.4,82.6,521.0,75.5L536.7,75.5zM850.8,184.5L875.7,206.3C862.3,222.4,848.5,234.2,834.2,241.5C819.9,248.8,804.5,252.5,788.2,252.5C762.0,252.5,740.1,244.0,722.6,226.9C705.0,209.9,696.3,189.1,696.3,164.7C696.3,148.1,700.4,132.9,708.5,119.1C716.7,105.4,727.9,94.7,742.2,87.0C756.5,79.3,773.3,75.5,792.7,75.5C816.0,75.5,835.0,80.9,849.7,91.6C864.4,102.4,871.8,113.8,871.8,125.7C871.8,130.8,870.6,135.4,868.3,139.4C866.0,143.4,862.5,146.6,857.7,149.1C853.0,151.6,848.0,152.8,842.7,152.8C838.4,152.8,834.5,152.0,831.1,150.3C827.8,148.6,824.9,146.4,822.7,143.8C821.7,142.7,819.7,139.2,816.8,133.4C813.0,126.0,810.2,121.2,808.1,118.8C806.1,116.4,803.7,114.6,800.9,113.3C798.0,112.0,794.8,111.4,791.2,111.4C785.3,111.4,779.7,113.2,774.4,117.0C769.0,120.8,764.6,126.5,761.2,134.2C757.7,141.9,756.0,150.4,756.0,159.9C756.0,170.3,758.0,179.6,762.1,187.9C766.2,196.2,771.6,202.5,778.4,206.8C785.3,211.1,792.8,213.2,801.0,213.2C808.9,213.2,816.9,211.1,824.9,206.8C832.9,202.5,841.5,195.1,850.8,184.5zM974.6,21.5L974.6,79.5L1029.1,79.5L1029.1,115.6L974.6,115.6L974.6,174.5C974.6,187.8,975.3,196.3,976.7,200.1C978.1,203.9,980.7,206.9,984.6,209.2C989.7,212.2,995.5,213.7,1002.0,213.7C1013.6,213.7,1025.2,210.0,1036.7,202.4L1036.7,238.6C1026.9,243.2,1018.0,246.5,1010.1,248.3C1002.1,250.2,993.5,251.1,984.2,251.1C973.8,251.1,964.5,249.8,956.4,247.2C948.3,244.5,941.5,240.7,935.8,235.8C930.1,230.9,926.1,225.7,923.9,220.2C921.7,214.6,920.6,206.6,920.6,196.1L920.6,115.6L895.2,115.6L895.2,83.1C904.3,80.2,912.0,76.0,918.4,70.5C924.8,65.0,930.0,58.4,933.9,50.8C937.8,43.1,940.5,33.3,941.9,21.5L974.6,21.5zM1109.4,.0C1118.0,.0,1125.3,3.0,1131.3,9.1C1137.4,15.1,1140.4,22.4,1140.4,31.0C1140.4,39.7,1137.4,47.0,1131.3,53.1C1125.3,59.1,1118.0,62.1,1109.4,62.1C1100.8,62.1,1093.5,59.1,1087.5,53.1C1081.5,47.0,1078.5,39.7,1078.5,31.1C1078.5,22.7,1081.6,15.4,1087.8,9.2C1094.0,3.1,1101.2,.0,1109.4,.0zM1136.8,75.5L1136.8,200.5C1136.8,206.5,1137.2,210.2,1137.9,211.5C1138.5,212.9,1139.7,213.9,1141.5,214.7C1143.2,215.4,1147.2,215.8,1153.3,215.8L1162.4,215.8L1162.4,248.4L1057.8,248.4L1057.8,215.8L1066.8,215.8C1072.6,215.8,1076.4,215.5,1078.0,214.8C1079.7,214.2,1080.9,213.2,1081.7,211.7C1082.5,210.2,1082.9,207.3,1082.9,202.9L1082.9,122.2L1057.8,122.2L1057.8,90.4C1066.7,89.9,1075.3,89.0,1083.4,87.5C1091.6,86.0,1098.9,84.3,1105.4,82.2C1109.5,80.9,1114.7,78.6,1120.8,75.5L1136.8,75.5zM1277.7,75.5C1297.0,75.5,1313.9,79.3,1328.2,86.8C1342.5,94.4,1353.5,104.7,1361.3,117.7C1369.0,130.7,1372.9,146.0,1372.9,163.5C1372.9,189.9,1364.3,211.3,1347.1,227.8C1330.0,244.3,1307.1,252.5,1278.4,252.5C1249.2,252.5,1226.0,244.2,1208.7,227.6C1192.0,211.8,1183.7,190.4,1183.7,163.5C1183.7,145.8,1187.5,130.5,1195.1,117.8C1202.7,105.0,1213.7,94.8,1228.2,87.1C1242.6,79.3,1259.1,75.5,1277.7,75.5zM1278.4,112.5C1272.0,112.5,1266.0,114.5,1260.3,118.3C1254.7,122.1,1250.3,127.8,1247.2,135.2C1244.1,142.7,1242.5,152.1,1242.5,163.6C1242.5,175.5,1244.1,185.3,1247.1,193.1C1250.2,200.9,1254.4,206.6,1259.7,210.4C1265.1,214.1,1271.0,215.9,1277.4,215.9C1287.3,215.9,1295.9,211.7,1303.0,203.3C1310.1,194.9,1313.6,181.9,1313.6,164.2C1313.6,147.0,1310.3,134.1,1303.7,125.5C1297.1,116.9,1288.7,112.5,1278.4,112.5zM1475.4,75.5L1475.4,98.0C1488.2,89.3,1499.1,83.4,1508.2,80.2C1517.2,77.1,1526.5,75.5,1536.0,75.5C1546.9,75.5,1556.6,77.8,1565.0,82.4C1573.4,87.0,1579.5,92.8,1583.4,99.8C1587.2,106.7,1589.1,116.5,1589.1,129.3L1589.1,199.7C1589.1,205.7,1589.6,209.5,1590.4,211.2C1591.2,212.9,1592.6,214.1,1594.4,214.9C1595.7,215.5,1599.8,215.8,1606.6,215.8L1614.9,215.8L1614.9,248.4L1515.5,248.4L1515.5,215.8C1523.1,215.7,1527.3,215.5,1528.2,215.3C1531.0,214.5,1532.9,213.2,1533.8,211.4C1534.7,209.6,1535.1,205.7,1535.1,199.7L1535.1,137.7C1535.1,129.7,1534.3,124.5,1532.6,122.2C1529.9,118.2,1525.6,116.3,1519.7,116.3C1514.9,116.3,1509.7,117.3,1504.2,119.5C1498.7,121.6,1491.2,126.0,1481.8,132.6L1481.8,199.7C1481.8,207.0,1482.6,211.5,1484.2,213.2C1485.8,214.9,1489.6,215.8,1495.7,215.8L1501.1,215.8L1501.1,248.4L1402.8,248.4L1402.8,215.8L1407.7,215.8C1415.5,215.8,1420.3,215.4,1422.2,214.8C1424.0,214.1,1425.5,212.9,1426.4,211.2C1427.4,209.5,1427.9,206.2,1427.9,201.2L1427.9,122.5L1402.8,122.5L1402.8,89.9C1423.1,87.3,1442.0,82.6,1459.7,75.5L1475.4,75.5z" fill="url(#lg1)" fill-rule="nonzero"/></svg>