<svg viewBox="0 0 1281 252.492" xmlns="http://www.w3.org/2000/svg" height="252" width="1281" xmlns:xlink="http://www.w3.org/1999/xlink"><defs><linearGradient id="lg1" y2="0%" y1="0%" x2="100%" x1="0%"><stop offset="0.23" stop-color="#ff770f"/><stop offset="0.64" stop-color="#7030a0"/></linearGradient></defs><path id="shape1" d="M.0,12.4L106.9,12.4L147.9,156.1L190.3,12.4L299.0,12.4L299.0,45.0L287.4,45.0C281.0,45.0,276.7,46.3,274.2,49.0C271.8,51.6,270.6,56.6,270.6,64.0L270.6,198.0C270.6,203.9,270.9,207.5,271.6,209.0C272.6,211.3,274.0,212.8,275.8,213.7C278.3,215.1,281.6,215.8,285.7,215.8L299.0,215.8L299.0,248.4L185.5,248.4L185.5,215.8L194.3,215.8C200.7,215.8,205.1,215.3,207.3,214.2C209.6,213.2,211.2,211.7,212.3,209.6C213.4,207.5,213.9,203.6,213.9,198.0L213.9,52.8L156.4,248.4L123.7,248.4L68.0,59.1L68.0,202.6C68.0,205.8,68.6,208.4,69.8,210.2C71.0,212.0,72.7,213.4,74.9,214.3C77.1,215.3,80.6,215.8,85.5,215.8L96.8,215.8L96.8,248.4L.0,248.4L.0,215.8L9.5,215.8C15.5,215.8,19.7,215.2,21.9,214.2C24.1,213.1,25.7,211.4,26.8,209.1C27.9,206.8,28.4,202.5,28.4,196.3L28.4,64.0C28.4,57.9,28.0,53.9,27.2,52.1C26.2,49.6,24.7,47.8,22.6,46.7C20.6,45.6,17.4,45.0,12.9,45.0L.0,45.0L.0,12.4zM414.9,75.5C434.2,75.5,451.0,79.3,465.3,86.8C479.7,94.4,490.7,104.7,498.4,117.7C506.1,130.7,510.0,146.0,510.0,163.5C510.0,189.9,501.4,211.3,484.3,227.8C467.1,244.3,444.2,252.5,415.6,252.5C386.4,252.5,363.1,244.2,345.9,227.6C329.2,211.8,320.8,190.4,320.8,163.5C320.8,145.8,324.6,130.5,332.2,117.8C339.8,105.0,350.9,94.8,365.3,87.1C379.8,79.3,396.3,75.5,414.9,75.5zM415.6,112.5C409.1,112.5,403.1,114.5,397.5,118.3C391.8,122.1,387.5,127.8,384.4,135.2C381.2,142.7,379.7,152.1,379.7,163.6C379.7,175.5,381.2,185.3,384.3,193.1C387.3,200.9,391.5,206.6,396.9,210.4C402.2,214.1,408.1,215.9,414.6,215.9C424.5,215.9,433.0,211.7,440.1,203.3C447.2,194.9,450.8,181.9,450.8,164.2C450.8,147.0,447.5,134.1,440.9,125.5C434.3,116.9,425.8,112.5,415.6,112.5zM712.9,.0L712.9,196.8C712.9,204.6,713.3,209.3,713.9,210.9C714.6,212.6,715.8,213.8,717.4,214.6C719.0,215.4,723.3,215.8,730.3,215.8L738.3,215.8L738.3,248.4L664.9,251.0L664.9,233.5C654.2,240.6,644.9,245.6,636.9,248.3C628.9,251.1,620.9,252.5,612.9,252.5C599.9,252.5,588.0,249.0,577.1,241.9C566.2,234.9,557.3,224.4,550.4,210.5C543.4,196.6,540.0,181.2,540.0,164.3C540.0,147.2,543.5,131.6,550.6,117.7C557.6,103.8,566.8,93.2,578.2,86.1C589.5,79.0,602.2,75.5,616.2,75.5C623.5,75.5,630.4,76.4,637.0,78.1C643.6,79.8,650.9,82.9,658.9,87.3L658.9,47.0L634.2,47.0L634.2,14.4C648.2,13.0,659.5,11.3,668.2,9.2C677.0,7.1,686.4,4.1,696.5,.0L712.9,.0zM658.8,200.0L658.8,143.3C658.8,136.2,658.3,131.2,657.3,128.3C656.0,124.1,652.9,120.4,648.1,117.3C643.3,114.1,637.9,112.5,632.1,112.5C626.0,112.5,620.3,114.4,615.1,118.0C609.9,121.7,605.8,127.3,602.8,134.9C599.7,142.4,598.2,151.9,598.2,163.1C598.2,178.8,601.6,191.4,608.5,200.9C613.8,208.3,620.9,212.0,629.7,212.0C633.5,212.0,637.2,211.4,640.7,210.1C644.2,208.8,650.3,205.4,658.8,200.0zM753.6,79.5L832.6,78.0L832.6,187.8C832.6,195.6,833.1,200.8,834.1,203.4C835.0,206.0,836.8,208.1,839.3,209.8C841.8,211.4,845.0,212.2,848.9,212.2C854.5,212.2,860.5,210.9,866.8,208.2C869.3,207.0,875.9,203.0,886.6,196.1L886.6,130.1C886.6,124.4,886.1,120.4,885.2,118.3C884.3,116.1,883.0,114.6,881.3,113.6C879.6,112.7,876.3,112.2,871.4,112.2L861.6,112.2L861.6,79.5L940.9,78.0L940.9,199.2C940.9,205.5,941.3,209.5,942.0,211.1C942.8,212.8,943.9,213.9,945.6,214.7C947.2,215.4,951.1,215.8,957.3,215.8L966.3,215.8L966.3,248.4L892.0,250.5L892.0,230.5C882.1,237.8,872.1,243.3,862.1,247.0C852.1,250.7,842.0,252.5,831.9,252.5C823.7,252.5,816.3,251.2,809.5,248.5C802.7,245.9,796.9,242.3,792.3,237.9C787.7,233.4,784.3,228.2,782.0,222.2C779.8,216.2,778.6,208.5,778.6,199.2L778.6,129.5C778.6,123.0,778.3,119.0,777.5,117.3C776.8,115.6,775.6,114.3,773.9,113.5C772.2,112.6,768.5,112.2,763.0,112.2L753.6,112.2L753.6,79.5zM1060.9,.0L1060.9,198.0C1060.9,204.7,1061.2,208.6,1061.8,209.8C1062.5,212.1,1064.3,213.7,1067.0,214.8C1068.7,215.4,1073.3,215.8,1080.7,215.8L1086.6,215.8L1086.6,248.4L981.9,248.4L981.9,215.8L988.3,215.8C995.1,215.8,999.4,215.3,1001.3,214.5C1003.3,213.7,1004.7,212.3,1005.6,210.4C1006.5,208.6,1006.9,204.4,1006.9,198.0L1006.9,47.0L981.9,47.0L981.9,14.4C1002.1,13.0,1022.9,8.2,1044.5,.0L1060.9,.0zM1257.4,185.8L1280.6,209.2C1267.3,224.4,1253.7,235.4,1239.9,242.3C1226.0,249.1,1211.1,252.5,1195.1,252.5C1169.4,252.5,1147.7,243.8,1130.1,226.3C1112.5,208.9,1103.7,187.8,1103.7,163.1C1103.7,146.9,1107.7,132.0,1115.6,118.5C1123.5,105.1,1134.4,94.5,1148.4,86.9C1162.4,79.3,1178.2,75.5,1196.0,75.5C1207.2,75.5,1217.5,77.1,1226.8,80.4C1236.0,83.7,1244.1,88.3,1251.0,94.4C1258.0,100.5,1263.6,107.9,1267.8,116.5C1272.0,125.1,1274.9,134.1,1276.5,143.3C1277.2,148.0,1277.5,155.3,1277.5,165.3L1163.6,165.3C1163.9,179.7,1168.1,191.3,1176.2,200.1C1184.4,209.0,1194.4,213.4,1206.3,213.4C1213.8,213.4,1222.1,211.1,1231.0,206.5C1239.9,202.0,1248.7,195.1,1257.4,185.8zM1223.5,136.9C1222.7,130.1,1221.1,124.8,1218.7,120.9C1216.3,117.0,1213.0,113.9,1208.9,111.6C1204.7,109.3,1200.4,108.1,1195.9,108.1C1191.1,108.1,1186.5,109.3,1182.1,111.7C1177.7,114.1,1174.2,117.3,1171.5,121.3C1168.9,125.4,1167.1,130.6,1166.3,136.9L1223.5,136.9z" fill="url(#lg1)" fill-rule="nonzero"/></svg>