<svg viewBox="0 0 1366 323.908" xmlns="http://www.w3.org/2000/svg" height="324" width="1366" xmlns:xlink="http://www.w3.org/1999/xlink"><defs><linearGradient id="lg1" y2="0%" y1="0%" x2="100%" x1="0%"><stop offset="0.23" stop-color="#ff770f"/><stop offset="0.64" stop-color="#7030a0"/></linearGradient></defs><path id="shape1" d="M.0,12.4L106.9,12.4L147.9,156.1L190.3,12.4L299.0,12.4L299.0,45.0L287.4,45.0C281.0,45.0,276.7,46.3,274.2,49.0C271.8,51.6,270.6,56.6,270.6,64.0L270.6,198.0C270.6,203.9,270.9,207.5,271.6,209.0C272.6,211.3,274.0,212.8,275.8,213.7C278.3,215.1,281.6,215.8,285.7,215.8L299.0,215.8L299.0,248.4L185.5,248.4L185.5,215.8L194.3,215.8C200.7,215.8,205.1,215.3,207.3,214.2C209.6,213.2,211.2,211.7,212.3,209.6C213.4,207.5,213.9,203.6,213.9,198.0L213.9,52.8L156.4,248.4L123.7,248.4L68.0,59.1L68.0,202.6C68.0,205.8,68.6,208.4,69.8,210.2C71.0,212.0,72.7,213.4,74.9,214.3C77.1,215.3,80.6,215.8,85.5,215.8L96.8,215.8L96.8,248.4L.0,248.4L.0,215.8L9.5,215.8C15.5,215.8,19.7,215.2,21.9,214.2C24.1,213.1,25.7,211.4,26.8,209.1C27.9,206.8,28.4,202.5,28.4,196.3L28.4,64.0C28.4,57.9,28.0,53.9,27.2,52.1C26.2,49.6,24.7,47.8,22.6,46.7C20.6,45.6,17.4,45.0,12.9,45.0L.0,45.0L.0,12.4zM423.2,146.0L423.2,133.5C423.2,126.1,422.6,120.9,421.3,118.1C420.1,115.3,417.8,113.0,414.6,111.1C411.3,109.2,407.2,108.3,402.4,108.3C398.7,108.3,395.3,108.9,392.2,110.2C389.2,111.4,386.7,113.0,384.9,114.9C383.1,116.8,381.1,120.5,378.7,126.1C375.6,133.1,372.0,138.1,367.8,141.1C363.5,144.2,358.5,145.7,352.8,145.7C345.6,145.7,339.6,143.5,335.0,138.9C330.4,134.4,328.1,128.8,328.1,122.2C328.1,114.6,330.5,107.9,335.2,102.0C341.5,94.3,350.9,87.9,363.5,82.9C376.0,78.0,390.1,75.5,405.8,75.5C421.4,75.5,434.8,78.0,445.8,83.1C456.8,88.2,464.5,94.2,468.8,101.3C473.1,108.3,475.3,119.1,475.3,133.5L475.3,194.1C475.3,201.6,475.7,206.3,476.5,208.4C477.3,210.5,479.0,212.3,481.6,213.9C484.2,215.5,487.0,216.3,490.2,216.3C493.4,216.3,497.6,215.4,502.9,213.6L502.9,246.6C493.3,249.6,484.1,251.1,475.3,251.1C464.9,251.1,456.1,249.4,448.7,246.1C441.4,242.7,435.3,237.6,430.3,230.8C419.0,238.2,408.8,243.4,399.6,246.5C390.4,249.6,381.5,251.1,372.9,251.1C356.8,251.1,343.8,246.6,333.8,237.5C323.9,228.4,318.9,217.2,318.9,203.9C318.9,196.4,320.7,189.4,324.1,183.1C327.5,176.8,332.7,171.3,339.5,166.5C346.3,161.8,356.9,157.6,371.2,153.9C385.4,150.2,402.8,147.6,423.2,146.0zM423.2,174.1C408.4,176.3,398.0,178.5,391.9,180.7C385.8,182.9,381.4,185.6,378.9,188.9C376.3,192.3,375.0,195.7,375.0,199.2C375.0,203.7,376.7,207.5,380.0,210.5C383.4,213.6,388.0,215.1,393.7,215.1C397.5,215.1,401.8,214.1,406.7,212.2C411.6,210.3,417.1,207.5,423.2,203.8L423.2,174.1zM595.9,75.5L595.9,94.3C608.8,86.4,618.6,81.3,625.4,78.9C632.3,76.6,639.6,75.5,647.4,75.5C667.1,75.5,683.2,82.8,695.6,97.3C709.8,114.0,716.9,135.3,716.9,161.3C716.9,186.1,710.7,206.9,698.3,223.6C684.1,242.8,665.0,252.5,641.1,252.5C633.4,252.5,626.7,251.6,621.0,249.9C615.2,248.1,608.9,244.9,602.2,240.3L602.2,274.3C602.2,281.1,602.5,285.2,603.2,286.5C604.0,288.2,605.3,289.4,607.0,290.1C608.8,290.9,613.1,291.2,620.1,291.2L628.1,291.2L628.1,323.9L523.1,323.9L523.1,291.2L528.9,291.2C536.6,291.2,541.3,290.9,542.9,290.3C544.5,289.7,545.8,288.4,546.8,286.4C547.7,284.4,548.2,280.4,548.2,274.3L548.2,122.7L523.1,122.7L523.1,89.9C535.3,88.4,545.6,86.6,554.1,84.4C562.7,82.3,571.3,79.3,580.1,75.5L595.9,75.5zM602.2,128.3L602.2,183.4C602.2,192.1,603.0,198.3,604.6,202.0C606.3,205.6,609.1,208.6,613.1,210.9C617.1,213.3,621.7,214.4,626.9,214.4C636.0,214.4,643.6,210.2,649.6,201.7C655.7,193.3,658.7,180.4,658.7,163.1C658.7,147.1,656.1,135.2,650.8,127.5C645.6,119.8,639.1,115.9,631.5,115.9C622.7,115.9,612.9,120.0,602.2,128.3zM816.1,75.5L816.1,94.3C829.0,86.4,838.8,81.3,845.7,78.9C852.5,76.6,859.8,75.5,867.6,75.5C887.3,75.5,903.4,82.8,915.8,97.3C930.0,114.0,937.1,135.3,937.1,161.3C937.1,186.1,930.9,206.9,918.5,223.6C904.3,242.8,885.2,252.5,861.3,252.5C853.7,252.5,846.9,251.6,841.2,249.9C835.4,248.1,829.2,244.9,822.4,240.3L822.4,274.3C822.4,281.1,822.7,285.2,823.4,286.5C824.2,288.2,825.5,289.4,827.2,290.1C829.0,290.9,833.3,291.2,840.3,291.2L848.3,291.2L848.3,323.9L743.4,323.9L743.4,291.2L749.1,291.2C756.8,291.2,761.5,290.9,763.1,290.3C764.7,289.7,766.0,288.4,767.0,286.4C767.9,284.4,768.4,280.4,768.4,274.3L768.4,122.7L743.4,122.7L743.4,89.9C755.5,88.4,765.8,86.6,774.4,84.4C782.9,82.3,791.6,79.3,800.3,75.5L816.1,75.5zM822.4,128.3L822.4,183.4C822.4,192.1,823.2,198.3,824.9,202.0C826.5,205.6,829.3,208.6,833.3,210.9C837.3,213.3,841.9,214.4,847.1,214.4C856.3,214.4,863.8,210.2,869.9,201.7C875.9,193.3,878.9,180.4,878.9,163.1C878.9,147.1,876.3,135.2,871.1,127.5C865.8,119.8,859.4,115.9,851.7,115.9C842.9,115.9,833.1,120.0,822.4,128.3zM1116.6,185.8L1139.8,209.2C1126.5,224.4,1112.9,235.4,1099.1,242.3C1085.2,249.1,1070.3,252.5,1054.3,252.5C1028.6,252.5,1006.9,243.8,989.3,226.3C971.7,208.9,962.9,187.8,962.9,163.1C962.9,146.9,966.9,132.0,974.8,118.5C982.7,105.1,993.6,94.5,1007.6,86.9C1021.6,79.3,1037.4,75.5,1055.2,75.5C1066.4,75.5,1076.7,77.1,1086.0,80.4C1095.2,83.7,1103.3,88.3,1110.2,94.4C1117.2,100.5,1122.8,107.9,1127.0,116.5C1131.2,125.1,1134.1,134.1,1135.7,143.3C1136.4,148.0,1136.7,155.3,1136.7,165.3L1022.8,165.3C1023.1,179.7,1027.3,191.3,1035.4,200.1C1043.6,209.0,1053.6,213.4,1065.5,213.4C1073.0,213.4,1081.3,211.1,1090.2,206.5C1099.1,202.0,1107.9,195.1,1116.6,185.8zM1082.7,136.9C1081.9,130.1,1080.3,124.8,1077.9,120.9C1075.5,117.0,1072.2,113.9,1068.1,111.6C1063.9,109.3,1059.6,108.1,1055.1,108.1C1050.3,108.1,1045.7,109.3,1041.3,111.7C1036.9,114.1,1033.4,117.3,1030.7,121.3C1028.1,125.4,1026.3,130.6,1025.5,136.9L1082.7,136.9zM1341.1,.0L1341.1,196.8C1341.1,204.6,1341.4,209.3,1342.1,210.9C1342.8,212.6,1343.9,213.8,1345.6,214.6C1347.2,215.4,1351.5,215.8,1358.5,215.8L1366.5,215.8L1366.5,248.4L1293.0,251.0L1293.0,233.5C1282.4,240.6,1273.1,245.6,1265.1,248.3C1257.1,251.1,1249.1,252.5,1241.1,252.5C1228.1,252.5,1216.2,249.0,1205.3,241.9C1194.4,234.9,1185.5,224.4,1178.6,210.5C1171.6,196.6,1168.1,181.2,1168.1,164.3C1168.1,147.2,1171.7,131.6,1178.7,117.7C1185.8,103.8,1195.0,93.2,1206.4,86.1C1217.7,79.0,1230.4,75.5,1244.4,75.5C1251.6,75.5,1258.6,76.4,1265.2,78.1C1271.8,79.8,1279.1,82.9,1287.1,87.3L1287.1,47.0L1262.4,47.0L1262.4,14.4C1276.4,13.0,1287.7,11.3,1296.4,9.2C1305.2,7.1,1314.6,4.1,1324.7,.0L1341.1,.0zM1287.0,200.0L1287.0,143.3C1287.0,136.2,1286.5,131.2,1285.5,128.3C1284.1,124.1,1281.1,120.4,1276.3,117.3C1271.5,114.1,1266.1,112.5,1260.3,112.5C1254.2,112.5,1248.5,114.4,1243.3,118.0C1238.1,121.7,1234.0,127.3,1230.9,134.9C1227.9,142.4,1226.4,151.9,1226.4,163.1C1226.4,178.8,1229.8,191.4,1236.7,200.9C1242.0,208.3,1249.1,212.0,1257.9,212.0C1261.7,212.0,1265.4,211.4,1268.9,210.1C1272.4,208.8,1278.4,205.4,1287.0,200.0z" fill="url(#lg1)" fill-rule="nonzero"/></svg>