<svg viewBox="0 0 1085 311.554" xmlns="http://www.w3.org/2000/svg" height="312" width="1085" xmlns:xlink="http://www.w3.org/1999/xlink"><defs><linearGradient id="lg1" y2="0%" y1="0%" x2="100%" x1="0%"><stop offset="0.23" stop-color="#ff770f"/><stop offset="0.64" stop-color="#7030a0"/></linearGradient></defs><path id="shape1" d="M.0,.0L124.8,.0C140.6,.0,153.8,1.6,164.2,4.8C174.6,8.0,183.6,12.9,191.1,19.5C198.6,26.0,204.4,33.8,208.5,42.7C212.6,51.7,214.6,61.2,214.6,71.2C214.6,91.4,206.8,108.4,191.3,122.0C175.8,135.7,154.4,142.5,127.1,142.5L86.8,142.5L86.8,186.7C86.8,192.2,87.2,195.7,88.0,197.2C89.0,199.3,90.6,200.9,92.7,201.9C94.7,202.9,98.3,203.4,103.2,203.4L115.2,203.4L115.2,236.1L.0,236.1L.0,203.4L8.0,203.4C15.0,203.4,19.7,202.9,22.0,201.9C24.2,200.9,25.9,199.3,26.9,197.1C27.9,194.9,28.4,190.3,28.4,183.4L28.4,53.6C28.4,46.4,28.0,41.7,27.1,39.3C26.2,37.0,24.7,35.3,22.7,34.3C20.7,33.2,17.0,32.7,11.4,32.7L.0,32.7L.0,.0zM86.8,38.6L86.8,105.6L107.0,105.6C119.3,105.6,128.3,104.3,134.0,101.8C139.8,99.3,144.4,95.4,147.9,90.1C151.4,84.9,153.2,78.6,153.2,71.4C153.2,60.6,149.0,52.0,140.6,45.7C134.4,41.0,125.2,38.6,113.0,38.6L86.8,38.6zM320.7,63.1C340.0,63.1,356.8,66.9,371.1,74.5C385.5,82.0,396.5,92.3,404.2,105.3C411.9,118.4,415.8,133.6,415.8,151.1C415.8,177.5,407.2,199.0,390.1,215.4C372.9,231.9,350.0,240.1,321.4,240.1C292.1,240.1,268.9,231.8,251.6,215.3C234.9,199.5,226.6,178.1,226.6,151.1C226.6,133.4,230.4,118.2,238.0,105.4C245.6,92.7,256.7,82.4,271.1,74.7C285.5,67.0,302.1,63.1,320.7,63.1zM321.4,100.2C314.9,100.2,308.9,102.1,303.3,105.9C297.6,109.8,293.2,115.4,290.1,122.9C287.0,130.3,285.5,139.8,285.5,151.3C285.5,163.1,287.0,173.0,290.1,180.7C293.1,188.5,297.3,194.3,302.7,198.0C308.0,201.7,313.9,203.6,320.4,203.6C330.3,203.6,338.8,199.4,345.9,191.0C353.0,182.6,356.6,169.5,356.6,151.8C356.6,134.7,353.3,121.8,346.7,113.1C340.1,104.5,331.6,100.2,321.4,100.2zM516.2,63.1L516.2,81.9C529.0,74.0,538.9,68.9,545.7,66.6C552.5,64.3,559.8,63.1,567.6,63.1C587.3,63.1,603.4,70.4,615.8,85.0C630.0,101.7,637.2,123.0,637.2,148.9C637.2,173.7,630.9,194.5,618.5,211.2C604.3,230.5,585.3,240.1,561.3,240.1C553.7,240.1,547.0,239.3,541.2,237.5C535.4,235.8,529.2,232.6,522.4,228.0L522.4,262.0C522.4,268.7,522.8,272.8,523.4,274.2C524.2,275.8,525.5,277.1,527.2,277.8C529.0,278.5,533.4,278.9,540.4,278.9L548.3,278.9L548.3,311.6L443.4,311.6L443.4,278.9L449.1,278.9C456.8,278.9,461.5,278.6,463.1,278.0C464.8,277.3,466.0,276.0,467.0,274.1C468.0,272.1,468.4,268.1,468.4,262.0L468.4,110.3L443.4,110.3L443.4,77.5C455.5,76.0,465.8,74.2,474.4,72.1C482.9,69.9,491.6,67.0,500.3,63.1L516.2,63.1zM522.4,115.9L522.4,171.1C522.4,179.8,523.2,186.0,524.9,189.6C526.5,193.3,529.3,196.3,533.3,198.6C537.3,200.9,541.9,202.1,547.1,202.1C556.3,202.1,563.8,197.8,569.9,189.4C575.9,180.9,578.9,168.0,578.9,150.8C578.9,134.8,576.3,122.9,571.1,115.2C565.8,107.4,559.4,103.6,551.7,103.6C542.9,103.6,533.1,107.7,522.4,115.9zM659.4,67.2L738.4,65.7L738.4,175.5C738.4,183.3,738.9,188.5,739.8,191.1C740.8,193.7,742.6,195.8,745.1,197.4C747.6,199.0,750.8,199.9,754.7,199.9C760.3,199.9,766.3,198.5,772.6,195.8C775.1,194.7,781.7,190.7,792.4,183.8L792.4,117.8C792.4,112.0,791.9,108.1,791.0,105.9C790.1,103.8,788.8,102.2,787.1,101.3C785.4,100.3,782.1,99.8,777.2,99.8L767.3,99.8L767.3,67.2L846.7,65.7L846.7,186.8C846.7,193.1,847.1,197.1,847.8,198.8C848.6,200.4,849.7,201.6,851.4,202.3C853.0,203.0,856.9,203.4,863.1,203.4L872.1,203.4L872.1,236.1L797.8,238.1L797.8,218.1C787.9,225.5,777.9,231.0,767.9,234.6C757.9,238.3,747.8,240.1,737.7,240.1C729.5,240.1,722.1,238.8,715.3,236.2C708.4,233.5,702.7,230.0,698.1,225.5C693.5,221.0,690.1,215.8,687.8,209.8C685.6,203.9,684.4,196.2,684.4,186.8L684.4,117.1C684.4,110.7,684.1,106.6,683.3,104.9C682.6,103.2,681.4,102.0,679.7,101.1C678.0,100.3,674.3,99.8,668.8,99.8L659.4,99.8L659.4,67.2zM963.8,63.1L963.8,81.9C976.7,74.0,986.5,68.9,993.4,66.6C1000.2,64.3,1007.5,63.1,1015.3,63.1C1035.0,63.1,1051.1,70.4,1063.5,85.0C1077.7,101.7,1084.8,123.0,1084.8,148.9C1084.8,173.7,1078.6,194.5,1066.2,211.2C1052.0,230.5,1032.9,240.1,1009.0,240.1C1001.3,240.1,994.6,239.3,988.9,237.5C983.1,235.8,976.9,232.6,970.1,228.0L970.1,262.0C970.1,268.7,970.4,272.8,971.1,274.2C971.9,275.8,973.2,277.1,974.9,277.8C976.7,278.5,981.0,278.9,988.0,278.9L996.0,278.9L996.0,311.6L891.1,311.6L891.1,278.9L896.8,278.9C904.5,278.9,909.2,278.6,910.8,278.0C912.4,277.3,913.7,276.0,914.7,274.1C915.6,272.1,916.1,268.1,916.1,262.0L916.1,110.3L891.1,110.3L891.1,77.5C903.2,76.0,913.5,74.2,922.1,72.1C930.6,69.9,939.2,67.0,948.0,63.1L963.8,63.1zM970.1,115.9L970.1,171.1C970.1,179.8,970.9,186.0,972.5,189.6C974.2,193.3,977.0,196.3,981.0,198.6C985.0,200.9,989.6,202.1,994.8,202.1C1003.9,202.1,1011.5,197.8,1017.6,189.4C1023.6,180.9,1026.6,168.0,1026.6,150.8C1026.6,134.8,1024.0,122.9,1018.7,115.2C1013.5,107.4,1007.0,103.6,999.4,103.6C990.6,103.6,980.8,107.7,970.1,115.9z" fill="url(#lg1)" fill-rule="nonzero"/></svg>