<svg viewBox="0 0 1789 252.492" xmlns="http://www.w3.org/2000/svg" height="252" width="1789" xmlns:xlink="http://www.w3.org/1999/xlink"><defs><linearGradient id="lg1" y2="0%" y1="0%" x2="100%" x1="0%"><stop offset="0.23" stop-color="#ff770f"/><stop offset="0.64" stop-color="#7030a0"/></linearGradient></defs><path id="shape1" d="M.0,12.4L124.8,12.4C140.6,12.4,153.8,14.0,164.2,17.2C174.6,20.4,183.6,25.3,191.1,31.8C198.6,38.4,204.4,46.1,208.5,55.1C212.6,64.1,214.6,73.6,214.6,83.6C214.6,103.8,206.8,120.7,191.3,134.4C175.8,148.0,154.4,154.8,127.1,154.8L86.8,154.8L86.8,199.0C86.8,204.5,87.2,208.0,88.0,209.5C89.0,211.7,90.6,213.2,92.7,214.2C94.7,215.3,98.3,215.8,103.2,215.8L115.2,215.8L115.2,248.4L.0,248.4L.0,215.8L8.0,215.8C15.0,215.8,19.7,215.3,22.0,214.2C24.2,213.2,25.9,211.6,26.9,209.4C27.9,207.2,28.4,202.7,28.4,195.8L28.4,66.0C28.4,58.8,28.0,54.0,27.1,51.7C26.2,49.4,24.7,47.7,22.7,46.6C20.7,45.6,17.0,45.0,11.4,45.0L.0,45.0L.0,12.4zM86.8,50.9L86.8,118.0L107.0,118.0C119.3,118.0,128.3,116.7,134.0,114.1C139.8,111.6,144.4,107.7,147.9,102.5C151.4,97.2,153.2,91.0,153.2,83.8C153.2,72.9,149.0,64.4,140.6,58.0C134.4,53.3,125.2,50.9,113.0,50.9L86.8,50.9zM301.6,75.5L301.6,100.0C310.6,90.5,318.4,84.1,325.1,80.6C331.7,77.2,338.0,75.5,344.1,75.5C349.7,75.5,354.6,76.7,359.0,79.3C363.3,81.8,366.8,85.5,369.3,90.2C371.9,94.9,373.2,100.0,373.2,105.4C373.2,112.5,370.8,119.0,366.1,124.7C361.4,130.5,354.8,133.4,346.3,133.4C344.1,133.4,342.1,133.2,340.3,132.8C338.6,132.5,334.9,131.4,329.2,129.5C326.3,128.6,323.8,128.1,321.9,128.1C319.0,128.1,314.1,130.0,307.3,133.7L307.3,199.9C307.3,205.5,307.7,209.2,308.6,210.9C309.4,212.6,310.8,213.8,312.7,214.6C314.7,215.4,318.8,215.8,325.3,215.8L332.7,215.8L332.7,248.4L228.3,248.4L228.3,215.8L237.0,215.8C243.2,215.8,247.1,215.4,248.7,214.8C250.2,214.1,251.4,212.9,252.1,211.2C252.9,209.5,253.3,205.7,253.3,199.9L253.3,122.2L228.3,122.2L228.3,89.7C246.7,88.6,265.8,83.8,285.7,75.5L301.6,75.5zM479.5,75.5C498.8,75.5,515.6,79.3,530.0,86.8C544.3,94.4,555.3,104.7,563.1,117.7C570.8,130.7,574.7,146.0,574.7,163.5C574.7,189.9,566.1,211.3,548.9,227.8C531.8,244.3,508.9,252.5,480.2,252.5C451.0,252.5,427.8,244.2,410.5,227.6C393.8,211.8,385.5,190.4,385.5,163.5C385.5,145.8,389.3,130.5,396.9,117.8C404.5,105.0,415.5,94.8,430.0,87.1C444.4,79.3,460.9,75.5,479.5,75.5zM480.2,112.5C473.8,112.5,467.8,114.5,462.1,118.3C456.5,122.1,452.1,127.8,449.0,135.2C445.9,142.7,444.3,152.1,444.3,163.6C444.3,175.5,445.9,185.3,448.9,193.1C452.0,200.9,456.2,206.6,461.5,210.4C466.9,214.1,472.8,215.9,479.2,215.9C489.1,215.9,497.7,211.7,504.8,203.3C511.9,194.9,515.4,181.9,515.4,164.2C515.4,147.0,512.1,134.1,505.5,125.5C498.9,116.9,490.5,112.5,480.2,112.5zM756.6,184.5L781.5,206.3C768.1,222.4,754.3,234.2,740.0,241.5C725.7,248.8,710.3,252.5,694.0,252.5C667.8,252.5,645.9,244.0,628.4,226.9C610.8,209.9,602.1,189.1,602.1,164.7C602.1,148.1,606.2,132.9,614.3,119.1C622.5,105.4,633.7,94.7,648.0,87.0C662.3,79.3,679.1,75.5,698.5,75.5C721.8,75.5,740.8,80.9,755.5,91.6C770.2,102.4,777.6,113.8,777.6,125.7C777.6,130.8,776.4,135.4,774.1,139.4C771.8,143.4,768.3,146.6,763.5,149.1C758.8,151.6,753.8,152.8,748.5,152.8C744.2,152.8,740.3,152.0,736.9,150.3C733.6,148.6,730.7,146.4,728.5,143.8C727.5,142.7,725.5,139.2,722.6,133.4C718.8,126.0,716.0,121.2,713.9,118.8C711.9,116.4,709.5,114.6,706.7,113.3C703.8,112.0,700.6,111.4,697.0,111.4C691.1,111.4,685.5,113.2,680.2,117.0C674.8,120.8,670.4,126.5,667.0,134.2C663.5,141.9,661.8,150.4,661.8,159.9C661.8,170.3,663.8,179.6,667.9,187.9C672.0,196.2,677.4,202.5,684.2,206.8C691.1,211.1,698.6,213.2,706.8,213.2C714.7,213.2,722.7,211.1,730.7,206.8C738.7,202.5,747.3,195.1,756.6,184.5zM957.4,185.8L980.6,209.2C967.3,224.4,953.7,235.4,939.9,242.3C926.1,249.1,911.1,252.5,895.1,252.5C869.4,252.5,847.7,243.8,830.1,226.3C812.5,208.9,803.7,187.8,803.7,163.1C803.7,146.9,807.7,132.0,815.6,118.5C823.5,105.1,834.4,94.5,848.4,86.9C862.4,79.3,878.3,75.5,896.0,75.5C907.2,75.5,917.5,77.1,926.8,80.4C936.0,83.7,944.1,88.3,951.0,94.4C958.0,100.5,963.6,107.9,967.8,116.5C972.0,125.1,974.9,134.1,976.5,143.3C977.2,148.0,977.5,155.3,977.5,165.3L863.6,165.3C863.9,179.7,868.1,191.3,876.2,200.1C884.4,209.0,894.4,213.4,906.3,213.4C913.8,213.4,922.1,211.1,931.0,206.5C939.9,202.0,948.7,195.1,957.4,185.8zM923.5,136.9C922.8,130.1,921.1,124.8,918.7,120.9C916.3,117.0,913.0,113.9,908.9,111.6C904.7,109.3,900.4,108.1,895.9,108.1C891.1,108.1,886.5,109.3,882.1,111.7C877.7,114.1,874.2,117.3,871.5,121.3C868.9,125.4,867.1,130.6,866.3,136.9L923.5,136.9zM1181.9,.0L1181.9,196.8C1181.9,204.6,1182.2,209.3,1182.9,210.9C1183.6,212.6,1184.8,213.8,1186.4,214.6C1188.0,215.4,1192.3,215.8,1199.3,215.8L1207.3,215.8L1207.3,248.4L1133.8,251.0L1133.8,233.5C1123.2,240.6,1113.9,245.6,1105.9,248.3C1097.9,251.1,1089.9,252.5,1081.9,252.5C1068.9,252.5,1057.0,249.0,1046.1,241.9C1035.2,234.9,1026.3,224.4,1019.4,210.5C1012.4,196.6,1009.0,181.2,1009.0,164.3C1009.0,147.2,1012.5,131.6,1019.5,117.7C1026.6,103.8,1035.8,93.2,1047.2,86.1C1058.5,79.0,1071.2,75.5,1085.2,75.5C1092.4,75.5,1099.4,76.4,1106.0,78.1C1112.6,79.8,1119.9,82.9,1127.9,87.3L1127.9,47.0L1103.2,47.0L1103.2,14.4C1117.2,13.0,1128.5,11.3,1137.2,9.2C1146.0,7.1,1155.4,4.1,1165.5,.0L1181.9,.0zM1127.8,200.0L1127.8,143.3C1127.8,136.2,1127.3,131.2,1126.3,128.3C1125.0,124.1,1121.9,120.4,1117.1,117.3C1112.3,114.1,1106.9,112.5,1101.1,112.5C1095.0,112.5,1089.3,114.4,1084.1,118.0C1078.9,121.7,1074.8,127.3,1071.7,134.9C1068.7,142.4,1067.2,151.9,1067.2,163.1C1067.2,178.8,1070.6,191.4,1077.5,200.9C1082.8,208.3,1089.9,212.0,1098.7,212.0C1102.5,212.0,1106.2,211.4,1109.7,210.1C1113.2,208.8,1119.3,205.4,1127.8,200.0zM1222.6,79.5L1301.6,78.0L1301.6,187.8C1301.6,195.6,1302.1,200.8,1303.0,203.4C1304.0,206.0,1305.8,208.1,1308.3,209.8C1310.8,211.4,1314.0,212.2,1317.9,212.2C1323.5,212.2,1329.5,210.9,1335.8,208.2C1338.3,207.0,1344.9,203.0,1355.6,196.1L1355.6,130.1C1355.6,124.4,1355.1,120.4,1354.2,118.3C1353.3,116.1,1352.0,114.6,1350.3,113.6C1348.6,112.7,1345.3,112.2,1340.4,112.2L1330.5,112.2L1330.5,79.5L1409.9,78.0L1409.9,199.2C1409.9,205.5,1410.3,209.5,1411.0,211.1C1411.8,212.8,1412.9,213.9,1414.6,214.7C1416.2,215.4,1420.1,215.8,1426.3,215.8L1435.3,215.8L1435.3,248.4L1361.0,250.5L1361.0,230.5C1351.1,237.8,1341.1,243.3,1331.1,247.0C1321.1,250.7,1311.0,252.5,1300.9,252.5C1292.7,252.5,1285.3,251.2,1278.5,248.5C1271.6,245.9,1265.9,242.3,1261.3,237.9C1256.7,233.4,1253.3,228.2,1251.0,222.2C1248.8,216.2,1247.6,208.5,1247.6,199.2L1247.6,129.5C1247.6,123.0,1247.3,119.0,1246.5,117.3C1245.8,115.6,1244.6,114.3,1242.9,113.5C1241.2,112.6,1237.5,112.2,1232.0,112.2L1222.6,112.2L1222.6,79.5zM1529.1,75.5L1529.1,100.0C1538.1,90.5,1545.9,84.1,1552.6,80.6C1559.2,77.2,1565.5,75.5,1571.6,75.5C1577.2,75.5,1582.1,76.7,1586.5,79.3C1590.8,81.8,1594.3,85.5,1596.8,90.2C1599.4,94.9,1600.6,100.0,1600.6,105.4C1600.6,112.5,1598.3,119.0,1593.6,124.7C1588.9,130.5,1582.3,133.4,1573.8,133.4C1571.6,133.4,1569.6,133.2,1567.8,132.8C1566.1,132.5,1562.4,131.4,1556.7,129.5C1553.8,128.6,1551.3,128.1,1549.4,128.1C1546.5,128.1,1541.6,130.0,1534.8,133.7L1534.8,199.9C1534.8,205.5,1535.2,209.2,1536.1,210.9C1536.9,212.6,1538.3,213.8,1540.2,214.6C1542.1,215.4,1546.3,215.8,1552.7,215.8L1560.2,215.8L1560.2,248.4L1455.8,248.4L1455.8,215.8L1464.5,215.8C1470.7,215.8,1474.6,215.4,1476.1,214.8C1477.7,214.1,1478.8,212.9,1479.6,211.2C1480.4,209.5,1480.8,205.7,1480.8,199.9L1480.8,122.2L1455.8,122.2L1455.8,89.7C1474.2,88.6,1493.3,83.8,1513.1,75.5L1529.1,75.5zM1766.1,185.8L1789.3,209.2C1776.0,224.4,1762.4,235.4,1748.6,242.3C1734.8,249.1,1719.8,252.5,1703.8,252.5C1678.1,252.5,1656.4,243.8,1638.8,226.3C1621.2,208.9,1612.4,187.8,1612.4,163.1C1612.4,146.9,1616.4,132.0,1624.3,118.5C1632.2,105.1,1643.1,94.5,1657.1,86.9C1671.1,79.3,1686.9,75.5,1704.7,75.5C1715.9,75.5,1726.2,77.1,1735.5,80.4C1744.7,83.7,1752.8,88.3,1759.7,94.4C1766.7,100.5,1772.3,107.9,1776.5,116.5C1780.7,125.1,1783.6,134.1,1785.2,143.3C1785.9,148.0,1786.2,155.3,1786.2,165.3L1672.3,165.3C1672.6,179.7,1676.8,191.3,1684.9,200.1C1693.1,209.0,1703.1,213.4,1715.0,213.4C1722.5,213.4,1730.8,211.1,1739.7,206.5C1748.6,202.0,1757.4,195.1,1766.1,185.8zM1732.2,136.9C1731.5,130.1,1729.8,124.8,1727.4,120.9C1725.0,117.0,1721.7,113.9,1717.6,111.6C1713.4,109.3,1709.1,108.1,1704.6,108.1C1699.8,108.1,1695.2,109.3,1690.8,111.7C1686.4,114.1,1682.9,117.3,1680.2,121.3C1677.6,125.4,1675.8,130.6,1675.0,136.9L1732.2,136.9z" fill="url(#lg1)" fill-rule="nonzero"/></svg>