<svg viewBox="0 0 852 252.492" xmlns="http://www.w3.org/2000/svg" height="252" width="852" xmlns:xlink="http://www.w3.org/1999/xlink"><defs><linearGradient id="lg1" y2="0%" y1="0%" x2="100%" x1="0%"><stop offset="0.23" stop-color="#ff770f"/><stop offset="0.64" stop-color="#7030a0"/></linearGradient></defs><path id="shape1" d="M.0,12.4L112.2,12.4L112.2,45.0L108.6,45.0C101.5,45.0,97.0,45.3,95.0,45.9C93.0,46.4,91.4,47.6,90.0,49.4C88.7,51.2,88.0,53.1,88.0,55.0C88.0,57.4,89.3,62.2,91.9,69.6L133.7,187.1L178.2,66.5C180.4,60.5,181.5,56.4,181.5,54.2C181.5,51.0,180.4,48.7,178.3,47.2C176.2,45.7,171.7,45.0,164.8,45.0L157.6,45.0L157.6,12.4L248.9,12.4L248.9,45.0C241.4,45.0,236.3,45.9,233.7,47.6C229.8,50.1,225.8,56.5,221.9,66.5L151.1,248.4L98.0,248.4L26.1,65.3C23.1,58.0,20.9,53.3,19.3,51.3C17.7,49.2,15.5,47.7,12.6,46.5C9.7,45.4,5.5,44.9,.0,45.0L.0,12.4zM313.8,.0C322.3,.0,329.6,3.0,335.7,9.1C341.7,15.1,344.7,22.4,344.7,31.0C344.7,39.7,341.7,47.0,335.7,53.1C329.6,59.1,322.3,62.1,313.8,62.1C305.2,62.1,297.9,59.1,291.8,53.1C285.8,47.0,282.8,39.7,282.8,31.1C282.8,22.7,285.9,15.4,292.1,9.2C298.3,3.1,305.5,.0,313.8,.0zM341.2,75.5L341.2,200.5C341.2,206.5,341.5,210.2,342.2,211.5C342.9,212.9,344.1,213.9,345.8,214.7C347.6,215.4,351.5,215.8,357.6,215.8L366.7,215.8L366.7,248.4L262.1,248.4L262.1,215.8L271.1,215.8C277.0,215.8,280.7,215.5,282.4,214.8C284.0,214.2,285.2,213.2,286.0,211.7C286.8,210.2,287.2,207.3,287.2,202.9L287.2,122.2L262.1,122.2L262.1,90.4C271.1,89.9,279.6,89.0,287.8,87.5C296.0,86.0,303.3,84.3,309.7,82.2C313.9,80.9,319.0,78.6,325.1,75.5L341.2,75.5zM541.1,185.8L564.3,209.2C551.0,224.4,537.4,235.4,523.6,242.3C509.8,249.1,494.9,252.5,478.9,252.5C453.1,252.5,431.5,243.8,413.9,226.3C396.3,208.9,387.5,187.8,387.5,163.1C387.5,146.9,391.4,132.0,399.3,118.5C407.2,105.1,418.2,94.5,432.2,86.9C446.1,79.3,462.0,75.5,479.7,75.5C491.0,75.5,501.3,77.1,510.5,80.4C519.8,83.7,527.9,88.3,534.8,94.4C541.7,100.5,547.3,107.9,551.6,116.5C555.8,125.1,558.7,134.1,560.3,143.3C560.9,148.0,561.3,155.3,561.3,165.3L447.4,165.3C447.6,179.7,451.8,191.3,460.0,200.1C468.2,209.0,478.2,213.4,490.0,213.4C497.6,213.4,505.8,211.1,514.7,206.5C523.7,202.0,532.5,195.1,541.1,185.8zM507.3,136.9C506.5,130.1,504.9,124.8,502.5,120.9C500.0,117.0,496.7,113.9,492.6,111.6C488.5,109.3,484.2,108.1,479.6,108.1C474.9,108.1,470.3,109.3,465.9,111.7C461.5,114.1,457.9,117.3,455.3,121.3C452.6,125.4,450.9,130.6,450.1,136.9L507.3,136.9zM580.0,79.5L669.5,79.5L669.5,112.2L665.8,112.2C661.5,112.2,658.8,112.7,657.5,113.6C655.9,114.7,655.1,116.2,655.1,118.1C655.1,119.8,655.7,122.2,656.7,125.4L680.3,198.4L700.8,141.2L695.4,125.4C693.8,120.7,691.9,117.3,689.6,115.4C687.3,113.5,683.9,112.4,679.3,112.2L679.3,79.5L764.5,79.5L764.5,112.2L757.5,112.2C753.7,112.2,751.0,112.8,749.6,113.9C748.1,115.0,747.4,116.7,747.4,118.8C747.4,120.8,748.0,123.8,749.4,127.6L769.7,188.3L790.4,127.6C791.7,123.7,792.4,120.7,792.4,118.6C792.4,116.5,791.6,114.9,790.0,113.8C788.3,112.7,785.0,112.2,779.8,112.2L776.0,112.2L776.0,79.5L852.0,79.5L852.0,112.2C846.5,112.2,842.9,112.5,841.2,113.2C839.5,113.9,838.0,115.0,836.8,116.4C835.2,118.6,833.4,122.3,831.5,127.6L786.0,248.4L741.1,248.4L715.9,180.6L690.3,248.4L645.2,248.4L600.7,127.6C599.1,123.3,597.2,119.8,594.9,116.9C593.5,115.0,592.1,113.8,590.6,113.2C589.1,112.7,585.5,112.3,580.0,112.2L580.0,79.5z" fill="url(#lg1)" fill-rule="nonzero"/></svg>