<svg viewBox="0 0 973 485.78" width="973" xmlns="http://www.w3.org/2000/svg" height="486" xmlns:xlink="http://www.w3.org/1999/xlink"><defs><radialGradient r="487.1" cy="37" fy="37" id="rg1" fx="486" cx="486" gradientUnits="userSpaceOnUse"><stop stop-color="#ff770f" offset="0.00"/><stop stop-color="#ff770f" offset="0.26"/><stop stop-color="#7030a0" offset="1.00"/></radialGradient></defs><g transform="translate(1.000000,1.000000)" id="group1"><path fill-rule="nonzero" fill="url(#rg1)" transform="translate(0.000000,206.381951)" d="M.0,58.1L19.6,56.3C20.5,58.6,21.6,60.3,23.0,61.3C24.5,62.3,26.4,62.8,28.9,62.8C31.5,62.8,33.6,62.2,35.1,61.1C36.2,60.3,36.8,59.2,36.8,58.0C36.8,56.5,36.0,55.4,34.5,54.7C33.4,54.1,30.6,53.4,26.0,52.6C19.1,51.4,14.4,50.3,11.7,49.3C9.0,48.3,6.8,46.5,4.9,44.1C3.1,41.7,2.2,38.9,2.2,35.8C2.2,32.4,3.2,29.5,5.2,27.0C7.1,24.6,9.9,22.7,13.3,21.5C16.8,20.3,21.4,19.7,27.3,19.7C33.4,19.7,38.0,20.2,40.9,21.1C43.8,22.0,46.3,23.5,48.3,25.5C50.2,27.5,51.8,30.1,53.1,33.5L34.4,35.3C33.9,33.7,33.1,32.5,31.9,31.7C30.4,30.7,28.5,30.1,26.3,30.1C24.1,30.1,22.4,30.5,21.4,31.3C20.4,32.1,19.9,33.1,19.9,34.2C19.9,35.5,20.5,36.4,21.8,37.1C23.1,37.7,25.9,38.3,30.3,38.8C36.9,39.6,41.8,40.6,45.0,41.9C48.2,43.3,50.6,45.2,52.3,47.6C54.0,50.1,54.9,52.8,54.9,55.7C54.9,58.7,54.0,61.6,52.2,64.4C50.4,67.2,47.6,69.5,43.7,71.2C39.8,72.8,34.5,73.7,27.9,73.7C18.4,73.7,11.7,72.3,7.7,69.6C3.7,66.9,1.1,63.1,.0,58.1zM122.0,51.6L82.3,51.6C82.7,54.8,83.6,57.1,84.9,58.7C86.8,60.9,89.3,62.0,92.4,62.0C94.4,62.0,96.2,61.6,98.0,60.6C99.0,60.0,100.2,58.9,101.4,57.3L120.9,59.1C117.9,64.3,114.3,68.0,110.1,70.3C105.9,72.5,99.8,73.7,92.0,73.7C85.1,73.7,79.8,72.7,75.8,70.8C71.9,68.8,68.7,65.8,66.1,61.6C63.5,57.4,62.2,52.4,62.2,46.8C62.2,38.7,64.8,32.2,70.0,27.2C75.1,22.2,82.3,19.7,91.4,19.7C98.8,19.7,104.6,20.8,108.9,23.0C113.2,25.3,116.4,28.5,118.7,32.8C120.9,37.0,122.0,42.5,122.0,49.3L122.0,51.6zM101.9,42.1C101.5,38.3,100.5,35.5,98.8,33.9C97.1,32.2,94.9,31.4,92.2,31.4C89.1,31.4,86.6,32.7,84.7,35.2C83.5,36.7,82.7,39.0,82.4,42.1L101.9,42.1zM131.8,1.2L151.6,1.2L151.6,72.5L131.8,72.5L131.8,1.2zM221.6,51.6L181.9,51.6C182.3,54.8,183.1,57.1,184.5,58.7C186.4,60.9,188.9,62.0,192.0,62.0C193.9,62.0,195.8,61.6,197.5,60.6C198.6,60.0,199.7,58.9,201.0,57.3L220.5,59.1C217.5,64.3,213.9,68.0,209.7,70.3C205.5,72.5,199.4,73.7,191.5,73.7C184.7,73.7,179.3,72.7,175.4,70.8C171.5,68.8,168.2,65.8,165.7,61.6C163.1,57.4,161.8,52.4,161.8,46.8C161.8,38.7,164.4,32.2,169.5,27.2C174.7,22.2,181.9,19.7,191.0,19.7C198.3,19.7,204.2,20.8,208.5,23.0C212.7,25.3,216.0,28.5,218.2,32.8C220.5,37.0,221.6,42.5,221.6,49.3L221.6,51.6zM201.5,42.1C201.1,38.3,200.0,35.5,198.4,33.9C196.7,32.2,194.5,31.4,191.8,31.4C188.6,31.4,186.1,32.7,184.2,35.2C183.0,36.7,182.3,39.0,182.0,42.1L201.5,42.1zM269.2,52.3L288.0,54.4C286.9,58.3,285.2,61.7,282.9,64.6C280.5,67.5,277.5,69.7,273.8,71.3C270.1,72.9,265.4,73.7,259.8,73.7C254.3,73.7,249.7,73.1,246.1,72.1C242.4,71.1,239.3,69.5,236.7,67.2C234.1,64.9,232.0,62.2,230.5,59.1C229.0,56.1,228.3,52.0,228.3,46.9C228.3,41.6,229.2,37.2,231.0,33.6C232.3,31.0,234.1,28.7,236.4,26.7C238.7,24.6,241.1,23.1,243.5,22.1C247.4,20.5,252.3,19.7,258.4,19.7C266.8,19.7,273.2,21.2,277.6,24.2C282.1,27.2,285.2,31.6,286.9,37.4L268.3,39.9C267.7,37.7,266.7,36.1,265.1,34.9C263.6,33.8,261.5,33.3,258.9,33.3C255.7,33.3,253.0,34.4,251.0,36.8C249.0,39.1,248.0,42.7,248.0,47.4C248.0,51.7,249.0,54.9,251.0,57.1C253.0,59.3,255.5,60.4,258.7,60.4C261.2,60.4,263.4,59.7,265.2,58.4C267.0,57.1,268.3,55.0,269.2,52.3zM320.9,1.2L320.9,20.9L331.8,20.9L331.8,35.3L320.9,35.3L320.9,53.6C320.9,55.8,321.1,57.3,321.5,58.0C322.2,59.1,323.3,59.7,324.9,59.7C326.4,59.7,328.4,59.2,331.1,58.4L332.5,72.1C327.6,73.1,323.1,73.7,318.8,73.7C313.9,73.7,310.3,73.0,307.9,71.8C305.6,70.5,303.9,68.6,302.7,66.0C301.6,63.4,301.1,59.3,301.1,53.5L301.1,35.3L293.8,35.3L293.8,20.9L301.1,20.9L301.1,11.4L320.9,1.2zM357.7,.0L368.4,.0L367.5,7.3C367.3,9.1,366.9,11.1,366.3,13.4C367.6,12.8,368.4,12.4,368.8,12.2C370.1,11.4,371.2,10.9,371.9,10.6L378.6,7.3L382.0,17.6L374.5,19.2C373.1,19.4,371.1,19.6,368.4,19.7C370.2,21.1,371.7,22.4,372.7,23.6L377.8,29.1L369.0,35.6L365.5,29.1C364.9,28.1,364.1,26.3,362.9,23.6C361.7,26.6,360.8,28.4,360.4,29.1L356.7,35.6L347.8,29.1L353.2,23.6C354.7,22.1,356.2,20.8,357.7,19.7C356.2,19.6,354.2,19.3,351.8,18.8L344.3,17.6L347.8,7.3L354.5,10.4C355.2,10.7,357.0,11.7,359.8,13.4C359.2,10.7,358.8,8.7,358.6,7.3L357.7,.0zM418.6,20.9L428.1,20.9L428.1,35.3L418.6,35.3L418.6,72.5L398.8,72.5L398.8,35.3L391.4,35.3L391.4,20.9L398.8,20.9L398.8,18.5C398.8,16.4,399.0,14.1,399.5,11.6C399.9,9.0,400.8,7.0,402.0,5.4C403.3,3.8,405.0,2.5,407.3,1.5C409.5,.5,412.8,.0,417.2,.0C420.6,.0,425.7,.4,432.3,1.2L430.1,13.2C427.7,12.8,425.8,12.6,424.4,12.6C422.6,12.6,421.3,12.9,420.5,13.5C419.7,14.1,419.2,15.0,418.9,16.3C418.7,17.0,418.6,18.6,418.6,20.9zM435.2,20.9L453.7,20.9L453.7,29.3C455.5,25.7,457.3,23.1,459.2,21.8C461.1,20.4,463.5,19.7,466.2,19.7C469.2,19.7,472.3,20.6,475.8,22.4L469.7,36.5C467.4,35.5,465.5,35.1,464.1,35.1C461.6,35.1,459.5,36.1,458.1,38.3C456.1,41.3,455.1,46.9,455.1,55.2L455.1,72.5L435.2,72.5L435.2,20.9zM479.2,46.8C479.2,38.9,481.9,32.5,487.2,27.3C492.5,22.2,499.7,19.7,508.7,19.7C519.1,19.7,526.9,22.7,532.2,28.7C536.4,33.5,538.5,39.5,538.5,46.5C538.5,54.5,535.9,61.0,530.6,66.0C525.4,71.1,518.1,73.7,508.8,73.7C500.5,73.7,493.8,71.6,488.7,67.3C482.4,62.1,479.2,55.3,479.2,46.8zM499.1,46.8C499.1,51.4,500.0,54.8,501.9,57.0C503.7,59.2,506.1,60.3,508.9,60.3C511.7,60.3,514.1,59.2,515.9,57.0C517.7,54.9,518.6,51.4,518.6,46.6C518.6,42.1,517.7,38.8,515.9,36.6C514.0,34.4,511.7,33.3,509.0,33.3C506.1,33.3,503.8,34.4,501.9,36.6C500.0,38.9,499.1,42.2,499.1,46.8zM548.2,20.9L566.7,20.9L566.7,28.4C569.3,25.2,572.0,23.0,574.7,21.7C577.4,20.4,580.7,19.7,584.5,19.7C588.6,19.7,591.9,20.4,594.3,21.9C596.7,23.3,598.7,25.5,600.2,28.4C603.3,25.0,606.1,22.7,608.7,21.5C611.3,20.3,614.4,19.7,618.2,19.7C623.7,19.7,628.0,21.3,631.1,24.6C634.2,27.9,635.8,33.1,635.8,40.1L635.8,72.5L616.0,72.5L616.0,43.1C616.0,40.7,615.5,39.0,614.6,37.9C613.3,36.1,611.6,35.2,609.7,35.2C607.3,35.2,605.5,36.0,604.0,37.7C602.6,39.4,601.9,42.1,601.9,45.8L601.9,72.5L582.1,72.5L582.1,44.0C582.1,41.8,581.9,40.2,581.7,39.4C581.3,38.1,580.5,37.1,579.5,36.3C578.4,35.5,577.2,35.1,575.8,35.1C573.5,35.1,571.7,36.0,570.2,37.7C568.7,39.4,568.0,42.2,568.0,46.1L568.0,72.5L548.2,72.5L548.2,20.9zM677.1,1.2L744.0,1.2L744.0,18.8L721.6,18.8L721.6,72.5L699.6,72.5L699.6,18.8L677.1,18.8L677.1,1.2zM765.2,37.6L746.3,35.6C747.0,32.3,748.0,29.7,749.4,27.8C750.7,25.9,752.7,24.2,755.2,22.9C757.0,21.8,759.5,21.1,762.7,20.5C765.9,20.0,769.3,19.7,773.0,19.7C778.9,19.7,783.7,20.0,787.3,20.7C790.9,21.4,793.9,22.7,796.3,24.8C798.0,26.3,799.3,28.4,800.3,31.0C801.2,33.7,801.7,36.3,801.7,38.7L801.7,61.5C801.7,63.9,801.9,65.8,802.2,67.2C802.5,68.6,803.2,70.4,804.2,72.5L785.6,72.5C784.9,71.2,784.4,70.1,784.2,69.5C783.9,68.8,783.7,67.7,783.5,66.2C780.9,68.7,778.3,70.4,775.8,71.5C772.3,72.9,768.2,73.7,763.6,73.7C757.4,73.7,752.7,72.2,749.5,69.4C746.3,66.5,744.7,63.0,744.7,58.8C744.7,54.9,745.9,51.7,748.2,49.2C750.5,46.6,754.7,44.7,760.9,43.5C768.4,42.0,773.2,41.0,775.4,40.4C777.6,39.8,779.9,39.0,782.4,38.0C782.4,35.6,781.9,33.9,780.9,32.9C779.9,31.9,778.1,31.5,775.6,31.5C772.3,31.5,769.9,32.0,768.3,33.0C767.0,33.8,766.0,35.3,765.2,37.6zM782.4,48.0C779.7,49.0,776.8,49.8,773.9,50.6C769.8,51.6,767.3,52.7,766.2,53.7C765.1,54.8,764.6,56.0,764.6,57.4C764.6,58.9,765.1,60.2,766.2,61.2C767.3,62.2,768.9,62.7,771.0,62.7C773.2,62.7,775.3,62.1,777.1,61.1C779.0,60.0,780.4,58.7,781.2,57.2C782.0,55.6,782.4,53.6,782.4,51.1L782.4,48.0zM814.7,1.2L834.7,1.2L834.7,25.9C836.6,23.8,838.9,22.3,841.4,21.2C843.9,20.2,846.7,19.7,849.7,19.7C856.0,19.7,861.2,22.0,865.3,26.5C869.5,31.0,871.5,37.5,871.5,45.9C871.5,51.6,870.6,56.6,868.7,60.8C866.8,65.1,864.2,68.3,860.9,70.5C857.6,72.6,853.9,73.7,849.8,73.7C846.4,73.7,843.2,72.9,840.3,71.4C838.1,70.3,835.8,68.1,833.2,64.9L833.2,72.5L814.7,72.5L814.7,1.2zM834.5,46.5C834.5,51.0,835.4,54.2,837.0,56.2C838.7,58.2,840.8,59.2,843.4,59.2C845.7,59.2,847.7,58.2,849.3,56.2C850.9,54.3,851.7,51.0,851.7,46.3C851.7,42.2,850.9,39.3,849.4,37.3C847.8,35.4,845.9,34.5,843.7,34.5C841.0,34.5,838.8,35.5,837.1,37.5C835.4,39.5,834.5,42.5,834.5,46.5zM881.7,1.2L901.5,1.2L901.5,72.5L881.7,72.5L881.7,1.2zM971.5,51.6L931.8,51.6C932.2,54.8,933.0,57.1,934.4,58.7C936.3,60.9,938.8,62.0,941.9,62.0C943.8,62.0,945.7,61.6,947.4,60.6C948.5,60.0,949.6,58.9,950.9,57.3L970.4,59.1C967.4,64.3,963.8,68.0,959.6,70.3C955.4,72.5,949.3,73.7,941.4,73.7C934.6,73.7,929.2,72.7,925.3,70.8C921.4,68.8,918.1,65.8,915.5,61.6C913.0,57.4,911.7,52.4,911.7,46.8C911.7,38.7,914.3,32.2,919.4,27.2C924.6,22.2,931.7,19.7,940.9,19.7C948.2,19.7,954.1,20.8,958.4,23.0C962.6,25.3,965.9,28.5,968.1,32.8C970.4,37.0,971.5,42.5,971.5,49.3L971.5,51.6zM951.4,42.1C951.0,38.3,949.9,35.5,948.3,33.9C946.6,32.2,944.4,31.4,941.7,31.4C938.5,31.4,936.0,32.7,934.1,35.2C932.9,36.7,932.2,39.0,931.9,42.1L951.4,42.1z" id="shape3"/></g></svg>